<svg width="50" height="50" viewBox="0 0 50 50" fill="none" xmlns="http://www.w3.org/2000/svg">
<path d="M43 41H37L36 35H44L43 41Z" stroke="#0AA245" stroke-width="2" stroke-miterlimit="10" stroke-linecap="round" stroke-linejoin="round"/>
<path d="M35 35H45" stroke="#0AA245" stroke-width="2" stroke-miterlimit="10" stroke-linecap="round" stroke-linejoin="round"/>
<path d="M38 31L36 35" stroke="#0AA245" stroke-width="2" stroke-miterlimit="10" stroke-linecap="round" stroke-linejoin="round"/>
<path d="M42 31L44 35" stroke="#0AA245" stroke-width="2" stroke-miterlimit="10" stroke-linecap="round" stroke-linejoin="round"/>
<path d="M34 9H14V13H34V9Z" stroke="#0AA245" stroke-width="2" stroke-miterlimit="10" stroke-linecap="round" stroke-linejoin="round"/>
<path d="M39 18H9L14 13H34L39 18Z" stroke="#0AA245" stroke-width="2" stroke-miterlimit="10" stroke-linecap="round" stroke-linejoin="round"/>
<path d="M11.5 26C10.12 26 9 24.88 9 23.5V18H14V23.5C14 24.88 12.88 26 11.5 26Z" stroke="#0AA245" stroke-width="2" stroke-miterlimit="10" stroke-linecap="round" stroke-linejoin="round"/>
<path d="M16.5 26C15.12 26 14 24.88 14 23.5V18H19V23.5C19 24.88 17.88 26 16.5 26Z" stroke="#0AA245" stroke-width="2" stroke-miterlimit="10" stroke-linecap="round" stroke-linejoin="round"/>
<path d="M21.5 26C20.12 26 19 24.88 19 23.5V18H24V23.5C24 24.88 22.88 26 21.5 26Z" stroke="#0AA245" stroke-width="2" stroke-miterlimit="10" stroke-linecap="round" stroke-linejoin="round"/>
<path d="M26.5 26C25.12 26 24 24.88 24 23.5V18H29V23.5C29 24.88 27.88 26 26.5 26Z" stroke="#0AA245" stroke-width="2" stroke-miterlimit="10" stroke-linecap="round" stroke-linejoin="round"/>
<path d="M31.5 26C30.12 26 29 24.88 29 23.5V18H34V23.5C34 24.88 32.88 26 31.5 26Z" stroke="#0AA245" stroke-width="2" stroke-miterlimit="10" stroke-linecap="round" stroke-linejoin="round"/>
<path d="M36.5 26C35.12 26 34 24.88 34 23.5V18H39V23.5C39 24.88 37.88 26 36.5 26Z" stroke="#0AA245" stroke-width="2" stroke-miterlimit="10" stroke-linecap="round" stroke-linejoin="round"/>
<path d="M9 41H33" stroke="#0AA245" stroke-width="2" stroke-miterlimit="10" stroke-linecap="round" stroke-linejoin="round"/>
<path d="M11 26V41" stroke="#0AA245" stroke-width="2" stroke-miterlimit="10" stroke-linecap="round" stroke-linejoin="round"/>
<path d="M37 26V28" stroke="#0AA245" stroke-width="2" stroke-miterlimit="10" stroke-linecap="round" stroke-linejoin="round"/>
<path d="M15 41V31H22V41" stroke="#0AA245" stroke-width="2" stroke-miterlimit="10" stroke-linecap="round" stroke-linejoin="round"/>
<path d="M31 37H26V31H33" stroke="#0AA245" stroke-width="2" stroke-miterlimit="10" stroke-linecap="round" stroke-linejoin="round"/>
</svg>
