<svg width="50" height="50" viewBox="0 0 50 50" fill="none" xmlns="http://www.w3.org/2000/svg">
<path d="M43 24.9939C43 26.309 40.4783 27.3169 40.2141 28.5583C39.926 29.8243 41.7632 31.8523 41.2228 33.0077C40.6704 34.1753 37.9807 33.9664 37.2001 34.962C36.4196 35.9698 37.2121 38.6124 36.2275 39.4114C35.2428 40.2103 32.9133 38.8337 31.7725 39.3991C30.6558 39.9522 30.2475 42.6931 29.0107 42.9758C27.8099 43.2585 26.2849 40.9723 25 40.9723C23.7151 40.9723 22.1901 43.2462 20.9893 42.9758C19.7525 42.6808 19.3442 39.9522 18.2275 39.3991C17.0867 38.8337 14.7452 40.2103 13.7725 39.4114C12.7879 38.6124 13.5804 35.9698 12.7999 34.962C12.0193 33.9541 9.32955 34.163 8.77718 33.0077C8.23682 31.8646 10.074 29.8366 9.78586 28.5583C9.50967 27.3292 7 26.3213 7 25.0061C7 23.691 9.52168 22.6831 9.78586 21.4417C10.074 20.1757 8.23682 18.1477 8.77718 16.9923C9.32955 15.8247 12.0193 16.0336 12.7999 15.038C13.5804 14.0302 12.7879 11.3876 13.7725 10.5886C14.7572 9.78972 17.0867 11.1663 18.2275 10.6009C19.3442 10.0478 19.7525 7.30691 20.9893 7.02421C22.1901 6.74152 23.7151 9.02767 25 9.02767C26.2849 9.02767 27.8099 6.75381 29.0107 7.02421C30.2475 7.3192 30.6558 10.0478 31.7725 10.6009C32.9133 11.1663 35.2548 9.78972 36.2275 10.5886C37.2121 11.3876 36.4196 14.0302 37.2001 15.038C37.9807 16.0459 40.6704 15.837 41.2228 16.9923C41.7632 18.1354 39.926 20.1634 40.2141 21.4417C40.4783 22.6708 43 23.6787 43 24.9939Z" stroke="#0AA245" stroke-width="2" stroke-miterlimit="10" stroke-linecap="round" stroke-linejoin="round"/>
<path d="M25 36C31.0751 36 36 31.0751 36 25C36 18.9249 31.0751 14 25 14C18.9249 14 14 18.9249 14 25C14 31.0751 18.9249 36 25 36Z" stroke="#0AA245" stroke-width="2" stroke-miterlimit="10" stroke-linecap="round" stroke-linejoin="round"/>
<path d="M21 25L24 28L29 22" stroke="#0AA245" stroke-width="2" stroke-linecap="round" stroke-linejoin="round"/>
</svg>
