<svg width="50" height="50" viewBox="0 0 50 50" fill="none" xmlns="http://www.w3.org/2000/svg">
<path d="M39.28 24.5C39.28 32.78 32.56 39.5 24.28 39.5" stroke="#0AA245" stroke-width="2" stroke-miterlimit="10" stroke-linecap="round" stroke-linejoin="round"/>
<path d="M9.28003 24.5C9.28003 16.22 16 9.5 24.28 9.5" stroke="#0AA245" stroke-width="2" stroke-miterlimit="10" stroke-linecap="round" stroke-linejoin="round"/>
<path d="M35.8999 26.78L39.2799 24.5L41.5599 27.88" stroke="#0AA245" stroke-width="2" stroke-miterlimit="10" stroke-linecap="round" stroke-linejoin="round"/>
<path d="M12.65 22.22L9.28 24.5L7 21.12" stroke="#0AA245" stroke-width="2" stroke-miterlimit="10" stroke-linecap="round" stroke-linejoin="round"/>
<path d="M7.28003 29L14.28 33V41L7.28003 37V29Z" stroke="#0AA245" stroke-width="2" stroke-miterlimit="10" stroke-linecap="round" stroke-linejoin="round"/>
<path d="M21.28 29L14.28 33V41L21.28 37V29Z" stroke="#0AA245" stroke-width="2" stroke-miterlimit="10" stroke-linecap="round" stroke-linejoin="round"/>
<path d="M21.28 29L14.28 33L7.28003 29L14.28 25L21.28 29Z" stroke="#0AA245" stroke-width="2" stroke-miterlimit="10" stroke-linecap="round" stroke-linejoin="round"/>
<path d="M27.28 12L34.28 16V24L27.28 20V16.14" stroke="#0AA245" stroke-width="2" stroke-miterlimit="10" stroke-linecap="round" stroke-linejoin="round"/>
<path d="M41.28 12L34.28 16V24L41.28 20V16.14" stroke="#0AA245" stroke-width="2" stroke-miterlimit="10" stroke-linecap="round" stroke-linejoin="round"/>
<path d="M41.28 12L34.28 16L27.28 12L34.28 8L41.28 12Z" stroke="#0AA245" stroke-width="2" stroke-miterlimit="10" stroke-linecap="round" stroke-linejoin="round"/>
<path d="M43.28 15L36.28 19L34.28 16L41.28 12L43.28 15Z" stroke="#0AA245" stroke-width="2" stroke-miterlimit="10" stroke-linecap="round" stroke-linejoin="round"/>
<path d="M25.28 15L32.28 19L34.28 16L27.28 12L25.28 15Z" stroke="#0AA245" stroke-width="2" stroke-miterlimit="10" stroke-linecap="round" stroke-linejoin="round"/>
</svg>
