<svg width="50" height="50" viewBox="0 0 50 50" fill="none" xmlns="http://www.w3.org/2000/svg">
<path d="M14.1004 27.5112C14.3104 27.5112 14.5204 27.4412 14.6904 27.3212C15.0104 27.0912 15.1604 26.7012 15.0904 26.3212L14.5804 23.4012L16.7104 21.3312C17.1104 20.9512 17.1204 20.3112 16.7304 19.9212C16.5704 19.7612 16.3704 19.6512 16.1504 19.6212L13.2204 19.1912L11.9104 16.5612C11.6704 16.0612 11.0704 15.8612 10.5704 16.1012C10.3704 16.2012 10.2004 16.3612 10.1104 16.5612L8.80041 19.2112L5.87041 19.6412C5.32041 19.7212 4.93041 20.2212 5.01041 20.7712C5.04041 20.9912 5.14041 21.2012 5.31041 21.3512L7.44041 23.4212L6.93041 26.3412C6.86041 26.7212 7.01041 27.1112 7.33041 27.3412C7.63041 27.5412 8.01041 27.5712 8.33041 27.4112L11.0104 26.0112L13.6304 27.3912C13.7704 27.4712 13.9304 27.5112 14.1004 27.5112Z" stroke="#0AA245" stroke-width="2" stroke-miterlimit="10" stroke-linecap="round" stroke-linejoin="round"/>
<path d="M28.1005 18.5112C28.3105 18.5112 28.5205 18.4412 28.6905 18.3212C29.0105 18.0912 29.1605 17.7012 29.0905 17.3212L28.5805 14.4012L30.7105 12.3312C31.1105 11.9512 31.1205 11.3112 30.7305 10.9212C30.5705 10.7612 30.3705 10.6512 30.1505 10.6212L27.2205 10.1912L25.9105 7.56122C25.6705 7.06122 25.0705 6.86122 24.5705 7.10122C24.3705 7.20122 24.2005 7.36122 24.1105 7.56122L22.8005 10.2112L19.8705 10.6412C19.3205 10.7112 18.9405 11.2212 19.0105 11.7712C19.0405 11.9912 19.1405 12.2012 19.3105 12.3512L21.4405 14.4212L20.9305 17.3412C20.8605 17.7212 21.0105 18.1112 21.3305 18.3412C21.6405 18.5612 22.0505 18.5912 22.3805 18.4112L25.0105 17.0112L27.6405 18.3912C27.7805 18.4712 27.9305 18.5112 28.1005 18.5112Z" stroke="#0AA245" stroke-width="2" stroke-miterlimit="10" stroke-linecap="round" stroke-linejoin="round"/>
<path d="M45.0105 20.3212C44.8905 19.9612 44.5805 19.6912 44.2005 19.6412L41.2705 19.2112L39.9105 16.5612C39.6705 16.0612 39.0705 15.8612 38.5705 16.1012C38.3705 16.2012 38.2005 16.3612 38.1105 16.5612L36.8005 19.2112L33.8705 19.6412C33.3205 19.7112 32.9405 20.2212 33.0105 20.7712C33.0405 20.9912 33.1405 21.2012 33.3105 21.3512L35.4405 23.4212L34.9305 26.3412C34.8405 26.8812 35.2005 27.4012 35.7505 27.5012C35.9705 27.5412 36.2005 27.5012 36.3905 27.3912L39.0105 26.0112L41.6405 27.3912C41.7805 27.4712 41.9405 27.5112 42.1005 27.5112C42.3105 27.5112 42.5205 27.4412 42.6905 27.3212C43.0105 27.0912 43.1605 26.7012 43.0905 26.3212L42.5805 23.4012L44.7105 21.3312C44.9905 21.0812 45.1105 20.6912 45.0105 20.3212Z" stroke="#0AA245" stroke-width="2" stroke-miterlimit="10" stroke-linecap="round" stroke-linejoin="round"/>
<path d="M38.1503 34.6412L35.2203 34.2112L33.9103 31.5512C33.6703 31.0512 33.0703 30.8512 32.5703 31.0912C32.3703 31.1912 32.2003 31.3512 32.1103 31.5512L30.8003 34.2112L27.8703 34.6412C27.4903 34.6912 27.1803 34.9612 27.0603 35.3212C26.9503 35.6712 27.0503 36.0612 27.3103 36.3212L29.4403 38.3912L28.9303 41.3112C28.8603 41.6912 29.0103 42.0812 29.3303 42.3112C29.6403 42.5312 30.0503 42.5612 30.3903 42.3812L33.0103 41.0112L35.6403 42.3912C35.7803 42.4712 35.9403 42.5112 36.1003 42.5112C36.3103 42.5112 36.5203 42.4412 36.6903 42.3212C37.0103 42.0912 37.1603 41.7012 37.0903 41.3212L36.5803 38.4012L38.7103 36.3312C38.9703 36.0712 39.0703 35.6812 38.9603 35.3312C38.8403 34.9712 38.5303 34.7012 38.1503 34.6412Z" stroke="#0AA245" stroke-width="2" stroke-miterlimit="10" stroke-linecap="round" stroke-linejoin="round"/>
<path d="M22.1503 34.6412L19.2203 34.2112L17.9103 31.5512C17.6703 31.0512 17.0703 30.8512 16.5703 31.0912C16.3703 31.1912 16.2003 31.3512 16.1103 31.5512L14.8003 34.2112L11.8703 34.6412C11.4903 34.6912 11.1803 34.9612 11.0603 35.3212C10.9503 35.6712 11.0503 36.0612 11.3103 36.3212L13.4403 38.3912L12.9303 41.3112C12.8703 41.8612 13.2603 42.3512 13.8103 42.4112C14.0003 42.4312 14.2003 42.4012 14.3803 42.3112L17.0103 41.0112L19.6303 42.3912C19.7703 42.4712 19.9403 42.5112 20.1003 42.5112C20.3103 42.5112 20.5203 42.4412 20.6903 42.3212C21.0103 42.0912 21.1603 41.7012 21.0903 41.3212L20.5803 38.4012L22.7103 36.3312C22.9703 36.0712 23.0703 35.6812 22.9603 35.3312C22.8403 34.9712 22.5303 34.7012 22.1503 34.6412Z" stroke="#0AA245" stroke-width="2" stroke-miterlimit="10" stroke-linecap="round" stroke-linejoin="round"/>
</svg>
