<svg width="47" height="40" viewBox="0 0 47 40" fill="none" xmlns="http://www.w3.org/2000/svg">
<path d="M34.7223 7.60903C34.5059 6.75343 34.029 6.165 33.559 5.31278C32.5884 3.58129 31.1308 2.03918 29.8491 1.88362C22.7338 1.01787 25.2464 9.29656 25.845 13.605C26.2475 16.4153 27.678 19.1241 27.2485 21.9209C26.6905 25.5327 23.0381 27.1323 21.0361 23.4224C19.8355 21.2208 17.9789 18.5154 14.4246 18.5154C12.8859 18.5154 10.8839 19.8816 9.8017 21.1667C9.8017 21.1667 8.81082 22.9557 8.37795 22.09C7.89097 21.1228 10.7385 18.0555 13.6265 17.9168C17.7321 17.7207 21.2119 17.1086 18.936 13.5103C18.3103 12.5194 16.7716 10.8759 15.9329 11.1295C15.0334 11.4034 18.1345 13.534 17.4345 14.7379C16.7344 15.8404 13.8294 15.4379 12.7303 15.3399C9.7273 15.1336 6.72424 15.9418 3.91395 17.7443C-0.472262 20.531 -1.97379 28.8807 5.42224 30.5344C6.86628 31.3798 6.86966 31.7586 6.94406 32.5601C6.41988 33.5374 6.1933 34.366 6.56868 35.1911C6.94406 36.0163 8.74657 36.6182 10.6235 36.3173C12.0371 36.0907 12.7236 34.7346 12.7303 34.7447C12.9062 35.0254 13.1057 35.3264 13.8362 35.6071C14.3367 35.7999 15.1686 35.8235 16.2508 35.5259C16.2508 35.5259 17.076 36.5168 17.7963 36.6081C20.1027 36.9023 20.7317 36.7129 21.5197 36.412C22.169 36.1617 22.3449 35.739 22.3449 35.739C23.7213 36.2902 25.6421 36.2463 26.0547 34.738C26.3185 33.7741 25.1518 33.436 24.6546 33.2939C24.9624 32.8374 24.4416 31.603 23.9478 31.3359C31.0091 31.9378 31.2323 26.3139 30.955 22.8204C30.6303 18.6405 26.5484 11.7044 27.1504 10.399C28.2766 11.2242 28.7838 10.9739 28.4896 10.2029C28.2394 9.55358 28.077 8.98543 28.351 8.397C28.2529 9.01587 29.494 10.4396 30.9245 11.0619C31.9763 11.5184 33.2039 11.9208 34.2353 11.0788C35.0436 10.4159 35.1416 9.2526 34.7257 7.60565L34.7223 7.60903Z" fill="#0AA245"/>
<path d="M35.0063 7.5346C34.0594 4.63976 31.8646 1.55555 28.5809 1.68744C26.8426 1.75169 25.4899 2.70198 24.9353 4.34554C24.2285 6.44227 24.7594 8.96172 25.1213 11.072L25.7402 14.6702C26.2001 16.9597 27.1301 19.0869 27.0219 21.4677C26.9339 23.4528 25.3952 26.0906 23.0753 25.164C21.5602 24.562 20.9177 22.4957 19.9978 21.258C18.5166 19.2661 15.7165 17.6733 13.197 18.6134C11.9322 19.0835 10.7147 19.8545 9.80504 20.8691C9.52435 21.1802 9.32482 21.5285 9.0678 21.86C8.53686 22.5465 8.67213 21.4474 8.70595 21.3493C8.87166 20.8387 9.33835 20.3584 9.69682 19.9864C11.2626 18.3666 13.1699 18.1366 15.2903 17.9472C16.5112 17.8424 17.7523 17.6327 18.848 17.0646C21.1206 15.8877 19.2505 13.2431 18.0601 12.0087C17.5291 11.4643 16.7209 10.7811 15.8957 11.001C15.3478 11.1498 15.4831 11.5353 15.7232 11.914C16.3827 12.9252 18.6282 14.8596 15.9667 15.2925C14.2995 15.563 12.5206 15.0963 10.8331 15.2046C7.87402 15.3872 4.53617 16.6418 2.40224 18.7588C-0.7699 21.9107 -1.07088 27.6057 3.13948 29.9425C4.38061 30.6358 6.39617 30.6865 6.62951 32.3909C6.68362 32.7663 6.23046 33.578 6.129 33.9804C6.05122 34.2848 6.10533 34.5587 6.13915 34.863C6.21017 35.4887 6.74111 35.8438 7.245 36.1143C9.03398 37.0714 11.7056 36.4965 12.9704 34.8969L12.4395 35.0017C12.9535 35.7863 13.8091 35.8844 14.7019 35.9148C15.1382 35.9283 15.8517 35.7592 16.173 36.0027C16.5957 36.3172 17.0049 36.6284 17.6069 36.767C18.892 37.0748 21.8172 37.2033 22.6018 35.7525L22.1115 35.8844C23.4946 36.3747 25.3208 36.4796 26.1866 35.0761C26.6296 34.3592 26.217 33.7978 25.6049 33.4393C25.1348 33.1654 25.0164 33.2635 25.0164 32.6885C25.0131 32.1441 24.6174 31.5624 24.2082 31.2377L23.8328 31.5015C25.8146 31.6368 28.104 31.4204 29.5582 29.8884C30.9482 28.4241 31.2796 26.4254 31.31 24.4707C31.3472 21.8803 30.5728 19.4927 29.6462 17.1018L28.0094 13.0098C27.7895 12.4348 27.3803 11.586 27.3668 10.8691C27.3668 10.8352 27.377 10.8386 27.3972 10.8454C27.8606 10.9942 28.1717 11.1971 28.5335 10.9942C28.591 10.9638 28.564 10.7338 28.6823 10.5715C28.777 10.4463 28.8311 10.3449 28.8007 10.24C28.7804 10.169 28.7432 10.0101 28.7195 9.94583C28.7195 9.95597 28.7432 9.95598 28.7432 9.95598C29.7747 11.0618 31.7395 11.7179 32.8995 11.7348C35.2769 11.772 35.3952 9.24241 35.0097 7.55489C34.9691 7.36889 34.3976 7.5143 34.4416 7.70369C34.6005 8.40372 34.7053 9.04965 34.658 9.76997C34.5329 11.4981 32.3753 11.4541 31.1544 10.9468C30.2414 10.5715 28.6587 9.5975 28.6079 8.34623C28.6012 8.16023 28.2021 8.21772 28.1311 8.34623C28.0127 8.56267 28.0296 8.8163 28.1007 9.32696C28.1751 9.86805 28.9427 11.3155 27.4243 10.3111C27.2755 10.2164 26.9339 10.2772 26.8731 10.4599C26.4267 11.7754 27.7422 13.9398 28.2156 15.1031C29.1626 17.4298 30.1872 19.7903 30.6066 22.2895C30.9008 24.0514 30.8264 25.9993 30.3191 27.7071C29.4635 30.5681 26.8156 31.3865 24.0662 31.2005C23.9985 31.1972 23.5318 31.3358 23.6908 31.4643C24.2217 31.8904 24.6174 32.6716 24.3773 33.3548C24.3638 33.3953 24.3942 33.4359 24.4348 33.4494C25.1111 33.6557 25.8788 33.8857 25.774 34.8056C25.615 36.3003 23.5183 35.9723 22.5782 35.6375C22.4463 35.5901 22.1656 35.6273 22.0878 35.7694C21.1984 37.4129 17.6407 36.581 16.5822 35.7998C16.4571 35.7119 16.3759 35.394 16.217 35.4278C15.0401 35.7051 13.7313 35.7795 13.0009 34.6669C12.9028 34.5181 12.5477 34.677 12.4699 34.7717C11.2457 36.324 7.46482 36.9327 6.71744 34.7278C6.39279 33.7606 7.28897 33.1248 7.2078 32.2591C7.15031 31.6774 6.88991 31.3324 6.45366 30.9571C5.35119 30.0101 3.77526 29.9425 2.58486 29.0294C1.5365 28.2212 0.917626 27.0206 0.647081 25.7491C0.109372 23.2161 1.27272 20.4328 3.0617 18.6608C4.55646 17.1728 6.78508 16.3239 8.78035 15.82C10.7959 15.3128 12.7405 15.6138 14.7662 15.6679C16.4165 15.7084 18.6282 15.1674 17.3769 13.1653C17.0929 12.7155 16.7242 12.3097 16.3928 11.9005C15.5744 10.8623 17.1875 11.931 17.5359 12.2522C18.5673 13.2194 20.2041 15.3601 18.8751 16.679C17.6982 17.8559 15.1821 17.6564 13.6738 17.7984C12.3482 17.9235 11.195 18.4477 10.1094 19.2019C9.26395 19.7903 8.40158 20.656 8.07693 21.6537C7.89093 22.2286 8.33733 22.5972 8.86489 22.4552C9.31467 22.3368 9.62918 21.86 9.87944 21.5049C10.8433 20.1149 12.5883 18.8096 14.3198 18.698C17.3634 18.5018 19.45 21.1667 20.7587 23.5272C21.5027 24.8765 22.9299 26.1346 24.587 25.6172C26.4875 25.022 27.3736 23.3074 27.59 21.4169C27.9147 18.6439 26.4774 15.793 26.058 13.0842C25.7706 11.2005 25.3648 9.34387 25.2329 7.4399C25.1145 5.70165 25.2295 3.48656 26.8528 2.44158C30.3056 0.233255 33.5386 4.97456 34.4314 7.71383C34.4889 7.90321 35.0571 7.74427 34.9996 7.56503L35.0063 7.5346Z" fill="#202329"/>
<path d="M30.3564 5.77264C29.609 5.77264 29.0002 4.91028 29.0002 3.83824C29.0002 2.76959 29.6056 1.90723 30.3564 1.90723C31.1037 1.90723 31.7125 2.76959 31.7125 3.83824C31.7125 4.91028 31.1071 5.77264 30.3564 5.77264Z" fill="white"/>
<path d="M31.5704 3.81117C31.54 4.4943 31.3438 5.16728 30.7453 5.5528C29.6901 6.24608 29.1761 4.55179 29.1457 3.85851C29.1152 3.19568 29.4094 2.48211 29.9708 2.11688C31.0327 1.42699 31.5434 3.1179 31.5704 3.81117C31.5806 3.92953 31.8579 3.99379 31.8545 3.8619C31.8207 3.06717 31.4419 1.90721 30.4882 1.82266C29.3756 1.72121 28.9089 2.87441 28.8683 3.81455C28.8345 4.60251 29.3215 5.77262 30.2346 5.85379C31.3472 5.95524 31.8139 4.80204 31.8545 3.8619C31.8545 3.74353 31.5772 3.6759 31.5704 3.81117Z" fill="#202329"/>
<path d="M30.096 3.41892C30.1366 3.517 30.1637 3.63536 30.1637 3.77063C30.1637 4.06485 30.0453 4.30496 29.8999 4.30496C29.7545 4.30496 29.6361 4.06823 29.6361 3.77063C29.6361 3.6286 29.6665 3.50009 29.7105 3.4054C29.3723 3.50685 29.1221 3.88561 29.1221 4.34216C29.1221 4.8731 29.4704 5.30936 29.8965 5.30936C30.3226 5.30936 30.6676 4.87649 30.6676 4.34216C30.6676 3.89914 30.4308 3.53052 30.1096 3.41554L30.096 3.41892Z" fill="#202329"/>
<path d="M33.109 5.73883C32.3617 5.73883 31.7529 4.87646 31.7529 3.80781C31.7529 2.73916 32.3549 1.87341 33.109 1.87341C33.8632 1.87341 34.4651 2.73916 34.4651 3.80781C34.4651 4.87646 33.8598 5.73883 33.109 5.73883Z" fill="white"/>
<path d="M34.3233 3.77059C34.2997 4.36917 34.1576 4.88997 33.7518 5.34313C32.6798 6.55044 31.9324 4.59575 31.8952 3.84161C31.8648 3.2667 32.088 2.69179 32.4667 2.26906C33.5388 1.06175 34.2895 3.01983 34.3233 3.77059C34.3301 3.87204 34.6074 3.91939 34.6074 3.83823C34.5736 3.05364 34.2117 1.90044 33.2581 1.8159C32.1455 1.71444 31.6585 2.80677 31.6179 3.77059C31.5841 4.55179 32.0609 5.71513 32.9672 5.79292C34.0799 5.89437 34.5668 4.80204 34.6074 3.83823C34.6108 3.74015 34.3301 3.69281 34.3233 3.77059Z" fill="#202329"/>
<path d="M32.8522 3.38506C32.8995 3.49666 32.9198 3.6184 32.9198 3.73677C32.9198 4.03098 32.8015 4.27109 32.656 4.27109C32.5106 4.27109 32.3923 4.03437 32.3923 3.73677C32.3923 3.59473 32.4227 3.46622 32.4667 3.37153C32.1285 3.47299 31.8782 3.85175 31.8782 4.30829C31.8782 4.83924 32.2232 5.27549 32.6493 5.27549C33.0754 5.27549 33.4237 4.84262 33.4237 4.30829C33.4237 3.86528 33.187 3.50004 32.8657 3.38168L32.8522 3.38506ZM31.1579 1.26804C30.0892 0.422588 28.7737 1.32553 28.2969 2.38742C28.2089 2.59371 28.6993 2.39757 28.7669 2.24539C29.1389 1.41346 29.9844 1.00088 30.7521 1.60622C30.884 1.71106 31.3236 1.39317 31.1579 1.26804ZM32.2773 0.365097C33.2309 -0.561521 34.4078 0.432733 34.8305 1.59608C34.9117 1.82266 34.4721 1.60622 34.4112 1.44051C34.0798 0.527424 33.3223 0.0776426 32.6391 0.74386C32.5208 0.858842 32.1285 0.507133 32.2773 0.365097ZM19.9167 30.9976C20.8298 31.7044 20.9651 32.8136 20.6066 33.8586C20.5931 33.9059 20.6269 33.9364 20.6641 33.9533C21.3134 34.305 22.5647 35.0794 21.9391 35.9722C21.797 36.1785 22.3652 36.121 22.47 35.9722C23.1024 35.0727 22.1555 34.3219 21.4352 33.8518C21.1511 33.6692 21.3777 32.4957 21.3168 32.1237C21.2289 31.5657 20.8806 31.1092 20.4511 30.7744C20.2989 30.6594 19.7747 30.8826 19.9167 30.9976ZM10.8366 30.5647C11.9458 31.3053 11.8139 32.002 11.283 32.9489C11.2627 32.9793 11.2424 33.0267 11.2796 33.0571C11.8985 33.5711 12.9198 34.0717 12.3178 35.1674C12.2299 35.3297 12.8352 35.2688 12.8995 35.0862C13.0483 34.6871 12.9637 34.3929 12.8048 33.9973C12.6627 33.6388 11.8274 33.0064 11.9729 32.6648C12.4023 31.6942 12.0439 31.0821 11.2086 30.3449C11.0665 30.2198 10.8264 30.5613 10.8264 30.5613L10.8366 30.5647ZM16.491 35.7761C16.2069 35.3331 16.3286 34.8393 16.491 34.3625C16.6567 33.8721 15.6962 33.6455 15.8247 33.2803C16.0885 32.516 15.2464 31.5251 14.5938 31.2478C14.4686 31.1937 14.1169 31.3899 14.1507 31.4034C14.915 31.7281 15.5948 32.7088 15.3006 33.5542C15.2938 33.5678 15.2938 33.5847 15.3107 33.5881C15.8484 33.9059 16.0716 34.2475 15.9093 34.8596C15.8112 35.2249 15.8214 35.5833 16.0276 35.9046C16.0953 36.0128 16.5282 35.8234 16.4977 35.7795L16.491 35.7761Z" fill="#202329"/>
<path d="M27.6847 8.73513C27.6678 8.56265 27.6915 8.38342 27.7422 8.22447C27.962 7.59884 28.706 7.97422 29.0916 8.15684C29.1795 8.19404 29.4162 8.06891 29.3993 8.05538C28.865 7.80513 28.1345 7.54811 27.6205 7.98775C27.4074 8.1636 27.333 8.51869 27.3635 8.81291C27.3702 8.87716 27.6915 8.81967 27.6847 8.73513Z" fill="#202329" stroke="#202329" stroke-width="0.4066" stroke-miterlimit="3.4828"/>
<path fill-rule="evenodd" clip-rule="evenodd" d="M46.0244 36.4086C45.9162 36.7028 45.7877 36.5371 45.6727 36.625L45.2533 36.7197C45.1959 36.8178 45.1756 36.838 45.25 36.7197L44.9557 36.7873C44.8543 36.7772 44.79 36.7772 44.7495 36.7569L44.6007 36.7873C44.4924 36.8211 44.3605 36.8617 44.3064 36.9057C44.2997 36.8955 44.2253 36.8752 44.1813 36.882L44.0629 36.9057C43.9818 36.9496 43.9547 37.0342 43.8059 37.0308C43.8533 37.0004 43.8736 36.9733 43.8736 36.9496L43.7687 36.9733C43.6335 37.0477 43.461 37.0815 43.3088 37.139C43.3392 37.1154 43.3798 37.0984 43.3663 37.0646C43.1735 37.1999 42.9841 37.1323 42.8083 37.2337L42.8455 37.183L42.6865 37.2202C42.6764 37.2574 42.6832 37.3081 42.5377 37.3149C42.5919 37.2844 42.5716 37.2675 42.5716 37.2439L42.5547 37.2506C42.3382 37.3994 41.9561 37.4569 41.7295 37.5448L41.7363 37.5144C41.4792 37.5854 41.2019 37.6159 40.928 37.7275C40.8536 37.7241 40.8773 37.6598 40.8232 37.6395L40.6541 37.6767C40.6338 37.7782 40.2111 37.8154 40.3937 37.9067C40.1569 37.9371 39.7748 37.9811 39.6294 38.0555C39.7105 37.998 39.5584 37.954 39.6159 37.9067L38.9632 38.0555C38.8583 38.1434 38.74 38.2314 38.5573 38.2787C38.652 38.2212 38.5438 38.1908 38.5235 38.1536L38.4999 38.1603L38.182 38.4444C38.0839 38.4748 38.138 38.3565 38.0061 38.414C38.0196 38.4444 37.9621 38.4782 37.9249 38.512C37.8844 38.5087 37.5259 38.6304 37.4549 38.529C37.4008 38.4951 37.6071 38.4715 37.4887 38.4512C37.3128 38.4918 37.3128 38.5323 37.1302 38.5763L37.1235 38.5628C36.9983 38.5729 36.7853 38.6913 36.9307 38.7285C37.0119 38.715 36.8834 38.671 37.0119 38.671C36.9408 38.7589 36.7379 38.8198 36.5587 38.8638C36.6162 38.8333 36.5993 38.8063 36.6162 38.7657C36.4572 38.7894 36.163 38.6947 35.9094 38.7894C35.9297 38.7589 35.9601 38.7116 35.9872 38.7014C35.6388 38.7116 35.3277 38.9517 35.0267 38.9246C35.0436 38.9415 35.0403 38.9889 35.0369 38.9821C34.8644 39.0126 34.861 38.9314 34.7528 38.9855C34.7325 38.9415 34.6209 39.0328 34.5127 39.0734C34.4755 39.1072 34.4755 39.0836 34.5161 39.0599C34.3098 39.1478 33.7788 39.3237 33.444 39.3338C33.4576 39.3643 33.2479 39.4962 33.1634 39.5097L33.1803 39.4285C33.1498 39.4218 33.1126 39.4251 33.0754 39.4353C33.0619 39.442 33.045 39.4454 33.0416 39.442C33.001 39.4522 32.9604 39.459 32.9199 39.459L33.0382 39.4218C33.0416 39.4184 33.0382 39.4184 33.0382 39.415C32.9976 39.4251 32.9571 39.4454 32.9131 39.459C32.8996 39.4556 32.8827 39.4522 32.8759 39.442C32.8421 39.4725 32.859 39.4725 32.8996 39.4657C32.788 39.5131 32.6798 39.5638 32.5546 39.5435C32.6054 39.5435 32.673 39.415 32.5343 39.4488C32.2976 39.5131 32.4768 39.4995 32.2908 39.5672L32.1725 39.6247C32.1826 39.6923 31.9797 39.6652 32.0541 39.7126C31.9831 39.6923 31.7295 39.8242 31.7295 39.7126L31.7396 39.6111C31.6382 39.6416 31.5908 39.7464 31.5232 39.8039C31.513 39.7971 31.4826 39.7904 31.4792 39.7735C31.4894 39.9121 31.2323 39.814 31.1343 39.9493L30.9516 39.9696L30.857 39.9831L30.8096 39.9933L30.7859 40H30.7724L30.3294 39.7194V39.716V39.7092C30.3091 39.5908 30.2956 39.4725 30.326 39.415C30.2448 39.2594 30.1603 39.1208 30.1502 38.9246C30.1738 38.9551 30.1874 39.0058 30.2212 39.0126C30.2347 38.884 30.1907 38.8638 30.1434 38.7589C30.1738 38.7792 30.1738 38.5053 30.1907 38.3599C30.1096 38.2077 30.0487 38.2787 29.998 38.2719C30.1028 38.0893 29.8052 37.8289 29.8898 37.6125C29.9202 37.6666 30.0081 37.8357 30.0149 37.6936C30.1197 37.5178 29.8424 37.413 29.8559 37.1593L29.7545 37.2472C29.8018 37.1221 29.6057 36.9091 29.7308 36.9057C29.6733 36.8347 29.7004 36.6115 29.5989 36.6656C29.6023 36.2462 29.3216 35.7153 29.467 35.4244C29.4366 35.3703 29.4231 35.2283 29.3723 35.2689C29.3318 35.3771 29.4467 35.394 29.4095 35.438C29.396 35.3872 29.3622 35.3805 29.3453 35.3805C29.3453 35.252 29.3318 35.1505 29.4467 35.2486C29.4569 34.9544 29.1931 35.0085 29.1593 34.6466C29.21 34.6534 29.2168 34.623 29.1897 34.5215L29.0714 34.3456C29.0375 34.1157 29.1458 34.1935 29.2235 34.1698C29.183 34.0514 29.1525 33.906 29.0815 33.862L29.139 33.693C29.095 33.8113 29.0714 33.605 29.0375 33.5509L29.068 33.6016C29.0984 33.5712 29.0443 33.4359 29.0172 33.3649C28.9733 33.3954 28.9868 33.5408 28.9868 33.6219C28.9395 33.5678 28.9293 33.4698 28.8684 33.3987C28.9496 33.4089 28.8786 33.1924 28.8651 33.091C28.8549 32.9794 28.767 32.9862 28.7636 32.9523C28.8042 32.9388 28.7332 32.7697 28.8042 32.8441C28.8279 32.8779 28.7873 32.9388 28.8346 32.9929C28.8448 32.9118 28.9158 32.905 28.8312 32.7697C28.7738 32.6649 28.6824 32.8272 28.6824 32.6074C28.7129 32.6581 28.7467 32.6615 28.7839 32.6953L28.7771 32.4823L28.7027 32.4924C28.7129 32.462 28.7264 32.4789 28.7332 32.462C28.6452 32.4214 28.6452 32.161 28.5472 32.1306C28.5167 32.0325 28.5472 31.9074 28.5336 31.8059L28.5438 31.8228C28.5573 31.6977 28.4931 31.5421 28.4254 31.4542L28.439 31.4576C28.4288 31.3899 28.3848 31.2411 28.3206 31.1701C28.3375 30.9943 28.5742 31.0518 28.4457 30.8928C28.4085 30.7271 28.2597 30.6629 28.2293 30.7406C28.2124 30.4329 28.023 30.115 28.0636 29.8174C28.0264 29.7836 28.0128 29.8106 27.9756 29.7295C27.9046 29.2865 27.6814 28.8265 27.7389 28.4444C27.7964 28.5627 27.8133 28.4342 27.8505 28.4241C27.7626 28.3362 27.8877 28.2854 27.7694 28.2719C27.7119 28.2956 27.6747 28.2922 27.6814 28.4207C27.5935 28.1671 27.4988 27.7714 27.5259 27.6125C27.5123 27.6936 27.4785 27.6429 27.4481 27.582C27.5495 27.5786 27.5259 27.3859 27.4548 27.2472L27.3906 27.2405L27.4312 27.1289C27.4007 27.0781 27.2891 27.0984 27.3128 26.9395C27.3331 26.9259 27.3568 26.909 27.3703 26.882C27.2824 26.7433 27.1505 26.5506 27.164 26.3713L27.2215 26.2191C27.1911 26.1515 27.1167 26.0433 27.1167 26.1752C27.1065 25.881 27.0761 25.7051 27.1302 25.5935C26.9814 25.3771 26.8664 25.093 26.7785 24.792L26.6534 24.3355L26.5992 24.1123L26.5756 24.0041L26.5654 23.9635V23.9601H26.5688L26.6026 23.9026H26.5992H26.6026V23.8992L26.9679 23.3175H26.9983H27.0186L27.049 23.3074L27.0795 23.277C27.0896 23.2465 27.0896 23.2262 27.1471 23.2296C27.1099 23.2871 27.2824 23.3006 27.1775 23.3784C27.4041 23.3784 27.4413 23.2364 27.5732 23.1857C27.5834 23.1214 27.4718 23.2499 27.4785 23.1688C27.4988 23.1383 27.7863 23.1485 27.8032 23.0504C27.8674 23.0808 27.837 23.1518 27.8167 23.1992L27.9418 23.1248C28.1244 23.1958 27.6172 23.3987 27.8167 23.4934L27.9351 23.4528C28.0737 23.5205 27.6408 23.6287 27.952 23.6016C28.0703 23.5238 28.1583 23.3649 28.0298 23.3547C28.2935 23.2668 28.1109 23.1079 28.4051 23.047C28.4998 23.0808 28.1684 23.1113 28.2462 23.1755C28.4018 23.2161 28.5167 23.0707 28.6452 23.0673C28.4964 23.0639 28.5945 22.9489 28.6791 22.9083C28.838 22.9185 28.5979 23.0166 28.8143 22.9794C28.838 22.9219 29.0274 22.8306 28.8448 22.8373C28.8955 22.6987 29.0747 22.8204 29.1694 22.6987C29.2574 22.7697 28.9936 22.9422 29.2371 22.9354C29.1796 22.861 29.5008 22.7596 29.3487 22.6716C29.4467 22.675 29.4738 22.7291 29.4163 22.7968C29.5583 22.8204 29.7004 22.5803 29.7782 22.7291L29.8086 22.6412C29.8559 22.6581 29.9168 22.6649 29.998 22.6953C30.1163 22.6716 30.3429 22.4992 30.3598 22.6277C30.3936 22.604 30.6608 22.5499 30.5357 22.489C30.3598 22.4721 30.3598 22.5905 30.2415 22.4991C30.3767 22.5668 30.4782 22.4315 30.5594 22.3808L30.5898 22.4281C30.6371 22.3977 30.7386 22.3808 30.7826 22.3402C30.7724 22.3639 30.7995 22.3808 30.84 22.3842L30.8806 22.2962C31.1004 22.2083 30.9618 22.4146 31.1816 22.3402L31.026 22.4383C31.0599 22.418 31.1512 22.4687 31.2526 22.4214C31.2831 22.3436 31.3406 22.2455 31.3642 22.1846C31.4691 22.1339 31.4454 22.2252 31.5164 22.1745L31.398 22.2692C31.3811 22.2996 31.5333 22.3571 31.7024 22.3165C31.8039 22.2658 31.9459 22.1339 31.77 22.1339C31.858 22.1136 31.9831 22.1272 31.9256 22.1914C32.1116 22.1238 31.885 22.1238 32.0372 22.0426C32.1184 22.073 32.3416 22.0899 32.4802 22.1238L32.3314 22.276L32.4498 22.2523C32.3247 22.3706 32.5377 22.303 32.4802 22.418C32.5614 22.4146 32.6493 22.3605 32.717 22.3165C32.4532 22.2151 32.9232 22.0527 32.8252 21.9276C33.1295 21.8194 33.0957 22.2218 33.373 21.931C33.3257 21.9107 33.3933 21.8228 33.3324 21.8262C33.4271 21.7754 33.3967 21.6841 33.5962 21.6875C33.4407 21.7856 33.8127 21.789 33.5861 21.9242C33.5928 21.8735 33.4373 21.9209 33.4102 21.9411C33.4982 21.975 33.4238 22.0899 33.6233 22.0392C33.7416 21.9986 33.9074 21.9581 33.8668 21.8904C33.8431 21.8093 33.6842 21.9411 33.7416 21.8431C33.9784 21.7619 34.046 21.8735 34.1136 21.7078C33.9648 21.7552 33.9074 21.6774 33.8972 21.6266L34.0663 21.5522L34.046 21.6097C34.3402 21.5793 34.1035 21.4914 34.3876 21.444L34.5398 21.5218C34.4924 21.6266 34.1272 21.5725 34.2083 21.7078C34.391 21.674 34.4315 21.5894 34.6108 21.5827L34.4924 21.6402C34.5567 21.63 34.6683 21.8126 34.8948 21.6368C35.0132 21.5624 34.9185 21.5793 34.9084 21.5184C35.1924 21.4373 35.2601 21.3629 35.4461 21.3121C35.4359 21.4305 35.7775 21.2479 35.5949 21.4001C35.49 21.3595 35.0741 21.4576 34.9929 21.5827C35.1248 21.6875 34.763 21.6165 34.7291 21.7585C34.9591 21.7078 34.976 21.8397 35.0335 21.9107C35.0977 21.9006 35.1519 21.8532 35.1857 21.8296C35.1958 21.7484 35.1113 21.7721 35.091 21.6875C35.3548 21.6503 35.5915 21.5489 35.7166 21.444C35.8113 21.4643 35.8046 21.5455 35.7031 21.5759C36.0041 21.488 36.3321 21.4204 36.6297 21.3764C36.4437 21.3054 36.8056 21.2817 36.8225 21.2276C36.8529 21.2614 36.8867 21.302 36.8766 21.346C37.066 21.2445 36.8834 21.4204 37.0829 21.3764C37.2723 21.2749 37.509 21.1802 37.7322 21.1058C38.0365 21.1363 38.4457 20.9469 38.696 20.886C38.838 20.9063 38.7772 21.0382 38.9192 21.0247C39.0883 20.9875 38.7704 20.9368 39.0274 20.93L39.0105 20.9604C39.0748 20.9198 39.4332 20.93 39.511 20.7846L39.4738 20.8928C39.5212 20.8928 39.5617 20.8556 39.5922 20.8353C39.6023 20.8725 39.6632 20.8928 39.5956 20.9401C39.6192 20.9469 39.6395 20.9503 39.6632 20.9503L39.8391 20.9097C39.9168 20.8793 39.9946 20.8319 40.0758 20.8116L39.9507 20.7643C40.2212 20.6459 40.4275 20.6764 40.698 20.5884L40.7048 20.6628L40.8604 20.5817C40.8401 20.6392 40.9483 20.6628 41.0227 20.6222L40.9787 20.6527L42.3517 20.3416L43.1769 23.9635L43.2648 24.2002C43.275 24.2306 43.2615 24.2442 43.2412 24.2543L43.3663 24.8123C43.5016 25.208 43.603 25.6679 43.6707 26.1447L44.5837 30.1793L45.02 31.7822C44.9997 31.7687 44.9659 31.7586 44.9388 31.7653L44.9557 31.833C45.0234 31.904 45.0809 32.0697 45.1316 32.2253C45.0606 32.3335 45.2905 32.5431 45.2939 32.7832L45.2703 32.7697C45.4021 32.9185 45.2703 33.0335 45.4191 33.1451L45.3717 33.2702C45.5205 33.3142 45.3616 33.5306 45.4596 33.6524L45.4901 33.6422C45.5476 33.7674 45.5002 33.8485 45.5476 33.9669L45.5374 33.9804C45.6355 34.2645 45.6017 34.4471 45.6997 34.4167C45.6423 34.535 45.6017 34.1766 45.5239 34.3186L45.5543 34.4471C45.6964 34.8698 45.8181 35.5969 45.9263 36.0366L46.0075 36.395L46.0244 36.4086ZM39.5415 20.7677L39.5313 20.7981L39.5415 20.7677ZM31.5705 22.1441C31.5604 22.1542 31.5502 22.161 31.5401 22.1677L31.5705 22.1441ZM30.8265 22.3098C30.8231 22.3199 30.8164 22.3233 30.813 22.3334C30.8096 22.3233 30.8164 22.3165 30.8265 22.3098ZM27.0084 23.3378C27.0186 23.3277 27.0186 23.3277 27.0084 23.3378V23.3378ZM32.0846 39.7295C32.0812 39.7261 32.0744 39.7227 32.0744 39.7194C32.0778 39.7227 32.0812 39.7227 32.0846 39.7295ZM35.0166 38.9348C35.0267 38.9382 35.0335 38.9382 35.047 38.9382C35.0403 38.9314 35.0335 38.9314 35.0166 38.9348ZM44.3098 36.9124C44.3098 36.9091 44.3132 36.9091 44.3166 36.9057C44.3132 36.9091 44.3098 36.9124 44.3098 36.9124ZM33.2851 21.8498C33.3223 21.8329 33.3426 21.8262 33.3629 21.8194C33.346 21.8329 33.3189 21.8397 33.2851 21.8498ZM36.5857 21.0957C36.6838 21.0822 36.5959 21.1498 36.6432 21.1667C36.7143 21.1025 36.792 21.1566 36.8597 21.1566C36.8766 21.1397 36.907 21.1228 36.9611 21.0991C36.9307 21.143 36.8935 21.1566 36.8597 21.1566C36.8292 21.187 36.8292 21.2073 36.8428 21.231C36.8394 21.231 36.836 21.2276 36.8326 21.2242C36.6669 21.2276 36.5147 21.1701 36.5857 21.0957ZM35.8959 38.8232C35.906 38.8198 35.9162 38.8164 35.9263 38.813C35.9094 38.8299 35.8959 38.8401 35.8959 38.8232ZM40.3768 20.8116L40.4715 20.7913L40.5459 20.744C40.5526 20.7541 40.556 20.7643 40.556 20.7744L40.7488 20.7305C40.7454 20.7237 40.7386 20.7169 40.7319 20.7136C40.6507 20.6662 40.414 20.7406 40.3768 20.8116ZM39.2236 21.0788C39.2033 21.0822 39.183 21.0822 39.1492 21.0822L39.139 21.0991L39.2236 21.0788ZM26.6398 23.933L26.606 23.9905L26.6398 23.933ZM32.9334 39.4691C32.9266 39.4725 32.9232 39.4759 32.9165 39.4759C32.9232 39.4725 32.9266 39.4725 32.9334 39.4691Z" fill="#F10B34"/>
<path fill-rule="evenodd" clip-rule="evenodd" d="M42.1219 35.2925C41.3204 35.492 40.5155 35.0557 40.1604 34.2847L39.484 34.4267C39.014 34.5282 35.8959 35.2823 35.6085 35.3973C35.507 36.121 35.6051 36.8244 34.6514 37.2235C33.1634 37.8491 32.5209 36.8481 32.1725 35.8809C31.9291 35.2079 31.9798 34.5857 32.1624 34.1866C32.3619 33.7436 32.8252 33.5745 32.8388 33.5102C32.8388 33.5102 34.0934 27.7679 37.1573 24.0243C37.2825 23.8755 37.3873 23.801 37.5564 23.7875C37.6815 23.7774 37.8506 23.8687 37.9385 23.9296C38.7908 24.5281 39.6261 25.1504 40.4479 25.7929C40.6034 25.9181 40.7218 25.9417 40.7218 26.2157C40.7218 26.4321 40.4918 26.5099 40.4918 26.5099L41.459 30.3956C41.459 30.3956 42.1354 30.1724 42.5683 30.514C43.2751 31.072 43.3055 32.3604 43.4002 33.0368C43.549 34.0581 43.0519 35.0456 42.1219 35.2756V35.2925ZM38.5879 31.9005L37.6443 28.61C36.481 30.125 35.8553 31.515 35.7674 32.7764L38.5811 31.9005H38.5879Z" fill="#202329"/>
<path fill-rule="evenodd" clip-rule="evenodd" d="M41.4151 35.2588C40.6136 35.4583 39.8087 35.0153 39.4536 34.2375L38.7773 34.3863C38.3072 34.4877 35.1892 35.252 34.9051 35.3704C34.8036 36.1076 34.8983 36.8144 33.948 37.2203C32.4566 37.8526 31.8175 36.8381 31.4658 35.8641C31.2223 35.1878 31.2764 34.5554 31.4556 34.1563C31.6552 33.7065 32.1185 33.5375 32.132 33.4698C32.132 33.4698 33.3833 27.67 36.4472 23.8858C36.5723 23.737 36.6772 23.649 36.8462 23.649C36.9883 23.6456 37.1405 23.7302 37.2284 23.7911C37.8304 24.2104 39.1425 25.1979 39.7377 25.6747C39.8933 25.7999 40.015 25.8235 40.015 26.1008C40.015 26.324 39.7783 26.4018 39.7783 26.4018L40.7455 30.3349C40.7455 30.3349 41.4218 30.1049 41.8581 30.4532C42.5649 31.0214 42.5953 32.3166 42.69 33.0031C42.8388 34.0346 42.3451 35.0356 41.4117 35.2689L41.4151 35.2588ZM37.8811 31.8229L36.9342 28.1942C35.7742 29.7261 35.1553 31.434 35.0708 32.7089L37.8811 31.8229Z" fill="white" stroke="#202329" stroke-width="0.4467" stroke-miterlimit="3.4828" stroke-linejoin="round"/>
<path d="M29.7949 25.3635C29.3993 25.3635 29.0881 25.0457 29.0881 24.65C29.0881 24.2577 29.4026 23.9432 29.7949 23.9432C30.1838 23.9432 30.5017 24.2611 30.5017 24.65C30.5017 25.0457 30.1872 25.3635 29.7949 25.3635ZM40.4037 23.3209C40.0114 23.3209 39.6969 23.003 39.6969 22.6074C39.6969 22.2117 40.0148 21.8938 40.4037 21.8938C40.7926 21.8938 41.1105 22.2117 41.1105 22.6074C41.1105 23.003 40.7926 23.3209 40.4037 23.3209Z" fill="white" stroke="#202329" stroke-width="0.3404" stroke-miterlimit="3.4828"/>
<path d="M40.8263 22.7528C38.4658 19.4183 36.4401 16.1785 33.437 13.0368C33.1732 12.7629 32.7302 12.2116 32.1925 11.6536C32.0674 11.63 31.9355 11.6029 31.8104 11.5725C31.7901 11.5691 31.7698 11.5657 31.7529 11.5589C31.4891 11.4947 31.2186 11.4101 30.9446 11.3087C30.9277 11.3019 30.9108 11.2985 30.8871 11.2884C30.6098 11.1869 30.3359 11.0618 30.0721 10.9232C30.0586 10.913 30.0417 10.9096 30.0315 10.9029C29.7678 10.7541 29.5107 10.5985 29.2774 10.4226C29.2672 10.4159 29.2571 10.4091 29.247 10.399C29.1286 10.311 29.0204 10.2164 28.9155 10.1183C28.875 10.1487 28.8344 10.1758 28.7972 10.2164C28.831 10.3415 28.8851 10.541 28.8479 10.6458C28.7904 10.8386 28.6551 10.9265 28.53 10.984C28.4928 11.0009 28.4522 11.0145 28.4184 11.0246C28.0464 12.6513 28.6112 15.705 28.6382 16.4321C28.7397 19.1105 29.3146 21.9479 29.4938 24.6229C29.504 24.7988 29.6122 25.0186 29.788 25.0287C30.1871 25.0524 30.1499 24.6161 30.1499 24.6161C30.062 23.5914 29.6122 20.4565 29.4499 18.512C29.274 16.4051 28.3305 12.0764 29.0677 11.0517C29.832 9.99316 32.4428 12.8846 33.3728 13.8992C35.9058 16.6553 37.8773 19.7531 40.0282 22.7832C40.0654 22.8407 40.4306 22.9996 40.5591 22.9895C40.7587 22.976 40.9041 22.8644 40.8229 22.7528H40.8263Z" fill="white"/>
<path d="M40.9143 22.6277C38.5538 19.3 36.5619 16.0906 33.5521 12.9354C33.3119 12.6919 32.9027 12.1914 32.4191 11.6706C32.2568 11.6503 32.0843 11.6131 31.9119 11.5691C32.5138 12.1711 33.0482 12.8272 33.3356 13.1383C36.2846 16.2293 38.29 19.4183 40.6167 22.7088C40.637 22.7393 40.7046 22.8441 40.6167 22.905C40.4915 22.9929 40.336 22.9253 40.1466 22.6818C38.0059 19.6618 36.0242 16.5573 33.4912 13.7944C33.0955 13.3615 32.3955 12.5871 31.6582 11.9208C31.3945 11.6841 31.1273 11.444 30.8635 11.2512C30.4509 11.0923 30.062 10.9097 29.6866 10.6729C29.6427 10.6662 29.5818 10.6662 29.5378 10.6628C29.3146 10.6594 29.0948 10.7575 28.9562 10.957C28.7194 11.2952 28.6518 11.8397 28.6484 12.516C28.6518 14.2983 29.1794 17.0003 29.3079 18.5188C29.4702 20.4633 29.92 23.5983 30.0079 24.6128C30.0079 24.6128 30.0485 24.8529 29.8253 24.8698C29.6494 24.88 29.6494 24.6635 29.6427 24.606C29.4668 21.9141 28.8885 19.0835 28.7871 16.4187C28.7634 15.8471 28.4387 13.9871 28.4387 12.4146C28.432 11.8498 28.4861 11.302 28.5909 10.9131C28.5706 10.9232 28.5503 10.9435 28.5334 10.9536C28.4387 10.9976 28.3508 11.0213 28.2629 11.028C28.1817 11.4305 28.1513 11.931 28.1445 12.4213C28.1479 14.0209 28.4759 15.9148 28.4962 16.4356C28.6011 19.1343 29.1726 21.9716 29.3518 24.6297C29.3721 24.8462 29.4803 25.1302 29.7881 25.1742C30.0891 25.1708 30.1702 25.0727 30.2514 24.9679C30.3157 24.88 30.3089 24.7041 30.3089 24.6432C30.3089 24.3626 29.7678 20.4329 29.6021 18.4985C29.4702 16.9597 28.9426 14.2577 28.9426 12.5194C28.9393 11.8701 29.0306 11.3527 29.1929 11.1363C29.2808 11.0111 29.3823 10.9705 29.5345 10.9672C29.9673 10.9536 30.7418 11.4846 31.4587 12.144C32.1824 12.8001 32.8791 13.5678 33.2714 14.0007C35.7874 16.7467 37.7658 19.8377 39.9132 22.8712C40.0012 22.9692 40.2007 23.2093 40.5017 23.1958C40.6775 23.1857 40.9582 23.047 40.9718 22.8509C40.9718 22.7968 40.9413 22.6683 40.9176 22.6311L40.9143 22.6277Z" fill="#202329"/>
<path d="M28.209 11.2782C28.3476 10.4328 28.7974 10.1183 29.2269 10.1284C29.7139 10.1352 30.1231 10.4531 30.1332 10.4598L29.9574 10.6966C29.9574 10.6966 29.8695 10.6289 29.7274 10.5613C29.5854 10.4903 29.4028 10.426 29.2269 10.426C28.9395 10.4362 28.6486 10.5579 28.4998 11.3323L28.209 11.2782Z" fill="#202329"/>
</svg>
