<svg width="120" height="23" viewBox="0 0 120 23" fill="none" xmlns="http://www.w3.org/2000/svg">
<path d="M79.5006 10.7434C80.0404 9.40052 81.569 9.42643 81.569 9.42643H83.9526C83.9526 9.42643 79.8677 19.5524 79.8633 19.5567C79.3236 20.8823 77.9634 20.8996 77.9634 20.8996H75.3423L79.5006 10.7434Z" fill="black"/>
<path d="M56.3771 10.7434C56.9168 9.40052 58.4455 9.42643 58.4455 9.42643H60.829C60.829 9.42643 56.7441 19.5524 56.7398 19.5567C56.2 20.8823 54.8398 20.8996 54.8398 20.8996H52.2188L56.3771 10.7434Z" fill="black"/>
<path d="M64.3396 15.3379C64.3396 15.3379 62.6426 19.5394 62.6426 19.5437C62.0985 20.9125 60.7383 20.8996 60.7383 20.8996H58.1172C58.1172 20.8996 62.2798 10.7348 62.2798 10.7305C62.7894 9.43503 64.3396 9.42639 64.3396 9.42639H66.7232L64.6505 14.5692L71.8876 9.42639H77.0132L68.472 15.1867L74.8283 20.8996L69.6293 20.9082L64.3396 15.3379Z" fill="black"/>
<path d="M0.00389995 22.3289C0.00389995 22.3289 -0.9504 3.39834 24.535 0C24.535 0 17.2633 3.46744 16.9049 8.35984C16.7106 11.0198 18.6235 13.8222 21.5167 14.8586C25.3296 16.2231 28.6502 16.1022 30.697 14.47C32.5019 13.032 32.8905 10.3159 31.9708 8.58007C31.9708 8.58007 41.462 15.122 31.6728 21.7287C31.6728 21.7287 29.8592 17.5013 18.0061 18.1015C6.15719 18.6974 0.00389995 22.3289 0.00389995 22.3289Z" fill="black"/>
<path d="M100.132 9.42646H97.7488C97.7488 9.42646 96.2116 9.37033 95.6805 10.7478C95.6805 10.7521 93.6898 15.6186 93.6898 15.6186L85.9863 9.22351L81.2278 20.8997H83.8446C83.8446 20.8997 85.2048 20.9212 85.7488 19.5524C85.7488 19.5481 87.5365 15.1868 87.5365 15.1868L95.4171 21.3142L100.132 9.42646Z" fill="black"/>
<path d="M39.1782 9.43072L42.9781 21.7848L55.5524 9.43072H52.5859C52.5859 9.43072 51.0487 9.40049 49.723 10.7434L45.2322 15.2213L43.4747 9.43072H39.1782Z" fill="black"/>
<path d="M115.129 9.27096H110.777C110.777 9.27096 108.117 9.258 105.936 9.87549C103.755 10.493 101.687 11.6416 100.387 13.1184C99.0874 14.5952 98.4829 16.4865 98.9104 17.8856C99.3379 19.2846 100.927 20.4592 103.073 20.8348C105.215 21.2148 107.814 21.0507 108.622 20.9341C109.429 20.8219 109.429 20.8219 109.429 20.8219C109.429 20.8219 110.643 20.6664 111.511 20.3944C112.387 20.1223 112.962 19.8244 112.962 19.8244L115.22 14.3404H108.989L108.03 16.6247H110.854L110.263 18.1015C110.263 18.1015 108.963 18.5808 107.072 18.5808C105.18 18.5808 104.157 18.1015 103.716 17.7215C103.276 17.3415 102.844 16.7499 103.302 15.502C103.755 14.254 104.969 13.2436 105.811 12.8291C106.657 12.4145 107.538 11.9741 109.101 11.8316C110.673 11.6891 111.696 11.7107 112.223 11.715C114.067 11.7193 114.421 10.7607 114.421 10.7607L115.129 9.27096Z" fill="black"/>
<path d="M37.0017 0.604491H36.4145V0.0906372H37.8179L39.5969 3.28603H39.6099V0.604491H39.0356V0.0906372H40.7239V0.604491H40.1194V4.24033H39.4717L37.5199 0.734034H37.507V3.68762H38.0985V4.20147H36.4102V3.68762H36.9974V0.604491H37.0017Z" fill="black"/>
<path d="M42.3561 1.26086C43.2154 1.26086 43.8544 1.90858 43.8544 2.7722C43.8544 3.63582 43.2067 4.28353 42.3474 4.28353C41.4881 4.28353 40.8447 3.63582 40.8447 2.7722C40.849 1.90858 41.4881 1.26086 42.3561 1.26086ZM42.3474 3.73945C42.8613 3.73945 43.2499 3.32923 43.2499 2.7722C43.2499 2.21948 42.8613 1.80494 42.3474 1.80494C41.8422 1.80494 41.4536 2.21948 41.4536 2.7722C41.4536 3.32923 41.8422 3.73945 42.3474 3.73945Z" fill="black"/>
<path d="M44.6749 1.83949H44.1006V1.34291H45.124V1.98631H45.1369C45.3183 1.507 45.681 1.29541 46.0394 1.29541H46.4065V1.8654H46.1042C45.4435 1.8654 45.2449 2.23244 45.2449 2.88879V3.70491H45.8624V4.20149H44.1135V3.70491H44.6749V1.83949Z" fill="black"/>
<path d="M46.713 1.83948H46.3633V1.3429H47.568V1.83948H47.1967L47.7364 3.5624H47.7494L48.2892 1.83948H47.9739V1.3429H49.36V1.83948H49.0535L49.5932 3.5624H49.6062L50.1503 1.83948H49.753V1.3429H51.0398V1.83948H50.6339L49.8653 4.24898H49.3385L48.6907 2.18061H48.6778L48.0128 4.24898H47.4817L46.713 1.83948Z" fill="black"/>
<path d="M51.6056 2.91036C51.692 3.4674 52.0547 3.78694 52.5858 3.78694C52.9529 3.78694 53.2983 3.62285 53.5099 3.32058L54.0065 3.53649C53.6999 4.0158 53.1817 4.2792 52.5729 4.2792C51.6488 4.2792 50.9795 3.64876 50.9795 2.76787C50.9795 1.84379 51.7352 1.25653 52.4822 1.25653C53.2767 1.25653 54.0065 1.86106 54.0065 2.91036H51.6056ZM53.4322 2.50014C53.3415 2.04674 52.9442 1.71425 52.4951 1.71425C52.0461 1.71425 51.7093 2.02083 51.6229 2.50014H53.4322Z" fill="black"/>
<path d="M57.8237 1.83948H57.3098V4.22307C57.3098 5.24646 56.4203 5.54872 55.7769 5.54872C55.3408 5.54872 55.0342 5.44509 54.6499 5.16873L55.0126 4.75851C55.2587 4.95714 55.5351 5.05646 55.8244 5.05646C56.1742 5.05646 56.7442 4.8751 56.7442 4.24466V3.81285H56.7312C56.5067 4.09784 56.1008 4.28352 55.7078 4.28352C54.9046 4.28352 54.3174 3.66171 54.3174 2.81105C54.3174 1.95175 54.9349 1.29108 55.7337 1.29108C56.1137 1.29108 56.4462 1.44221 56.7442 1.74448V1.34289H57.8194L57.8237 1.83948ZM55.8244 3.78694C56.3555 3.78694 56.7571 3.36376 56.7571 2.80241C56.7571 2.24538 56.3642 1.8222 55.8374 1.8222C55.3149 1.8222 54.9306 2.24106 54.9306 2.80241C54.9262 3.38536 55.2976 3.78694 55.8244 3.78694Z" fill="black"/>
<path d="M58.3721 1.83948H57.9187V1.3429H58.9421V3.70058H59.3955V4.19716H57.9187V3.7049H58.3721V1.83948ZM58.9809 0.371326C58.9809 0.557004 58.8298 0.708138 58.6441 0.708138C58.4585 0.708138 58.3073 0.557004 58.3073 0.371326C58.3073 0.185648 58.4585 0.0345141 58.6441 0.0345141C58.8298 0.030196 58.9809 0.18133 58.9809 0.371326Z" fill="black"/>
<path d="M62.565 4.20148H61.5718V3.84739C61.2134 4.1367 60.9673 4.24897 60.6521 4.24897C60.108 4.24897 59.6848 3.84739 59.6848 3.34217C59.6848 2.81968 60.1382 2.4181 60.7255 2.4181C60.9802 2.4181 61.2739 2.50878 61.5071 2.65991V2.28424C61.5071 1.87834 61.2091 1.73152 60.8723 1.73152C60.6003 1.73152 60.3887 1.84811 60.2591 2.06833L59.7194 1.92152C59.9612 1.48107 60.3714 1.25653 60.9543 1.25653C61.792 1.25653 62.0727 1.67539 62.0727 2.13311V3.70058H62.565V4.20148ZM61.5071 3.1349C61.2652 2.94923 61.0105 2.84991 60.7687 2.84991C60.4534 2.84991 60.2246 3.05718 60.2246 3.34217C60.2246 3.61853 60.4362 3.81285 60.7384 3.81285C60.9932 3.81285 61.2782 3.68762 61.5071 3.47172V3.1349Z" fill="black"/>
<path d="M63.748 1.68836C64.128 1.412 64.4216 1.29541 64.7239 1.29541C65.1298 1.29541 65.4752 1.54154 65.4752 2.10721V3.70491H65.9675V4.20149H64.9095V2.33175C64.9095 1.96903 64.8059 1.81358 64.577 1.81358C64.3482 1.81358 64.0459 1.94744 63.7523 2.1763V3.70491H64.2445V4.20149H62.6944V3.70491H63.1823V1.83949H62.6814V1.34291H63.7523L63.748 1.68836Z" fill="black"/>
<path d="M67.8676 1.83947H67.4487V1.34288H67.8676V0.82903C67.8676 0.25904 68.226 0.00427246 68.6319 0.00427246C69.0378 0.00427246 69.3012 0.241768 69.3703 0.664942L68.8737 0.742668C68.8564 0.556989 68.783 0.466309 68.6578 0.466309C68.5196 0.466309 68.4419 0.582898 68.4419 0.772894V1.34288H68.9255V1.83947H68.4419V3.70489H68.9946V4.20147H67.4703V3.70489H67.8762V1.83947H67.8676Z" fill="black"/>
<path d="M70.752 1.26086C71.6113 1.26086 72.2547 1.90858 72.2547 2.7722C72.2547 3.63582 71.607 4.28353 70.7477 4.28353C69.8883 4.28353 69.2493 3.63582 69.2493 2.7722C69.2493 1.90858 69.8884 1.26086 70.752 1.26086ZM70.7477 3.73945C71.2615 3.73945 71.6501 3.32923 71.6501 2.7722C71.6501 2.21948 71.2615 1.80494 70.7477 1.80494C70.2381 1.80494 69.8538 2.2238 69.8538 2.7722C69.8538 3.32923 70.2381 3.73945 70.7477 3.73945Z" fill="black"/>
<path d="M74.1029 1.26086C74.9622 1.26086 75.6013 1.90858 75.6013 2.7722C75.6013 3.63582 74.9536 4.28353 74.0943 4.28353C73.2349 4.28353 72.5916 3.63582 72.5916 2.7722C72.5959 1.90858 73.235 1.26086 74.1029 1.26086ZM74.0943 3.73945C74.6081 3.73945 74.9967 3.32923 74.9967 2.7722C74.9967 2.21948 74.6081 1.80494 74.0943 1.80494C73.5847 1.80494 73.2004 2.2238 73.2004 2.7722C73.2004 3.32923 73.5847 3.73945 74.0943 3.73945Z" fill="black"/>
<path d="M75.8948 1.34285H76.2618V0.902404L76.8318 0.38855V1.34285H77.3586V1.83943H76.8318V3.49326C76.8318 3.76962 77.0779 3.76099 77.3586 3.66167V4.17121C77.2248 4.21439 77.0736 4.24893 76.9398 4.24893C76.5382 4.24893 76.2618 4.06757 76.2618 3.57099V1.83943H75.8948V1.34285Z" fill="black"/>
<path d="M77.7646 1.83948H77.4148V1.3429H78.6195V1.83948H78.2525L78.7923 3.5624H78.8052L79.345 1.83948H79.0211V1.3429H80.4072V1.83948H80.0963L80.6361 3.5624H80.6491L81.1931 1.83948H80.7959V1.3429H82.0827V1.83948H81.6768L80.9081 4.24898H80.3813L79.7336 2.18061H79.7207L79.0557 4.24898H78.5246L77.7646 1.83948Z" fill="black"/>
<path d="M82.6527 2.91036C82.7391 3.4674 83.1018 3.78694 83.6329 3.78694C84 3.78694 84.3454 3.62285 84.557 3.32058L85.0536 3.53649C84.747 4.0158 84.2288 4.2792 83.62 4.2792C82.6959 4.2792 82.0266 3.64876 82.0266 2.76787C82.0266 1.84379 82.7823 1.25653 83.5293 1.25653C84.3238 1.25653 85.0536 1.86106 85.0536 2.91036H82.6527ZM84.4793 2.50014C84.3886 2.04674 83.9913 1.71425 83.5423 1.71425C83.0932 1.71425 82.7564 2.02083 82.67 2.50014H84.4793Z" fill="black"/>
<path d="M88.305 4.20148H87.3118V3.84739C86.9534 4.1367 86.7073 4.24897 86.3921 4.24897C85.848 4.24897 85.4248 3.84739 85.4248 3.34217C85.4248 2.81968 85.8782 2.4181 86.4655 2.4181C86.7202 2.4181 87.0139 2.50878 87.247 2.65991V2.28424C87.247 1.87834 86.9491 1.73152 86.6123 1.73152C86.3402 1.73152 86.1287 1.84811 86.0034 2.06833L85.4637 1.92152C85.7055 1.48107 86.1157 1.25653 86.6986 1.25653C87.532 1.25653 87.817 1.67539 87.817 2.13311V3.70058H88.3093L88.305 4.20148ZM87.247 3.1349C87.0052 2.94923 86.7505 2.84991 86.5086 2.84991C86.1934 2.84991 85.9646 3.05718 85.9646 3.34217C85.9646 3.61853 86.1762 3.81285 86.4784 3.81285C86.7332 3.81285 87.0182 3.68762 87.247 3.47172V3.1349Z" fill="black"/>
<path d="M88.9615 1.83949H88.3872V1.34291H89.4106V1.98631H89.4235C89.6049 1.507 89.9676 1.29541 90.326 1.29541H90.6974V1.8654H90.3951C89.7345 1.8654 89.5358 2.23244 89.5358 2.88879V3.70491H90.1533V4.20149H88.4045V3.70491H88.9658L88.9615 1.83949Z" fill="black"/>
<path d="M92.2951 3.22128H92.796V3.31628C92.8435 3.60128 93.1026 3.77832 93.4783 3.77832C93.8367 3.77832 94.0655 3.64014 94.0655 3.41992C94.0655 2.88879 93.0594 3.2256 92.5153 2.68152C92.3815 2.54766 92.2908 2.34903 92.2908 2.13744C92.2908 1.64949 92.7139 1.29541 93.2969 1.29541C93.556 1.29541 93.8064 1.35586 93.9921 1.4595V1.34291H94.4887V2.28857H93.9921V2.11153C93.828 1.86972 93.6164 1.76176 93.3271 1.76176C93.0249 1.76176 92.8262 1.89994 92.8262 2.11153C92.8262 2.59084 93.9273 2.31016 94.398 2.78515C94.5664 2.95356 94.6398 3.1781 94.6398 3.37673C94.6398 3.89922 94.1994 4.24899 93.543 4.24899C93.2364 4.24899 92.9989 4.18422 92.7917 4.04172V4.19717H92.2908L92.2951 3.22128Z" fill="black"/>
<path d="M95.2962 1.83948H94.8428V1.3429H95.8662V3.70058H96.3196V4.19716H94.8428V3.7049H95.2962V1.83948ZM95.9093 0.371326C95.9093 0.557004 95.7582 0.708138 95.5725 0.708138C95.3869 0.708138 95.2357 0.557004 95.2357 0.371326C95.2357 0.185648 95.3869 0.0345141 95.5725 0.0345141C95.7582 0.030196 95.9093 0.18133 95.9093 0.371326Z" fill="black"/>
<path d="M97.5802 1.68836C97.9602 1.412 98.2539 1.29541 98.5561 1.29541C98.962 1.29541 99.3075 1.54154 99.3075 2.10721V3.70491H99.7997V4.20149H98.7418V2.33175C98.7418 1.96903 98.6382 1.81358 98.4093 1.81358C98.1805 1.81358 97.8782 1.94744 97.5846 2.1763V3.70491H98.0768V4.20149H96.5266V3.70491H97.0146V1.83949H96.5137V1.34291H97.5846L97.5802 1.68836Z" fill="black"/>
<path d="M102.62 2.42242H102.11C102.08 2.22379 101.994 2.0597 101.864 1.94311C101.739 1.83516 101.562 1.7747 101.354 1.7747C100.845 1.7747 100.508 2.16765 100.508 2.74196C100.508 3.35513 100.866 3.76967 101.38 3.76967C101.76 3.76967 102.071 3.57103 102.24 3.20831L102.706 3.42422C102.46 3.98557 101.985 4.28352 101.363 4.28352C100.37 4.28352 99.9036 3.47172 99.9036 2.74628C99.9036 1.92152 100.525 1.25653 101.307 1.25653C101.618 1.25653 101.899 1.35153 102.11 1.53289V1.34289H102.62V2.42242Z" fill="black"/>
<path d="M103.565 2.91036C103.652 3.4674 104.014 3.78694 104.545 3.78694C104.912 3.78694 105.258 3.62285 105.469 3.32058L105.966 3.53649C105.659 4.0158 105.146 4.2792 104.532 4.2792C103.608 4.2792 102.943 3.64876 102.943 2.76787C102.943 1.84379 103.699 1.25653 104.442 1.25653C105.236 1.25653 105.966 1.86106 105.966 2.91036H103.565ZM105.392 2.50014C105.301 2.04674 104.899 1.71425 104.455 1.71425C104.006 1.71425 103.669 2.02083 103.582 2.50014H105.392Z" fill="black"/>
<path d="M108.898 0.587219H108.337V0.0906372H109.468V3.70489H109.995V4.20147H108.337V3.70489H108.898V0.587219Z" fill="black"/>
<path d="M111.433 2.98376C111.498 3.47171 111.783 3.78693 112.171 3.78693C112.603 3.78693 113.005 3.36807 113.005 2.24537C112.746 2.53468 112.387 2.70309 112.042 2.70309C111.381 2.70309 110.897 2.16332 110.897 1.42493C110.897 0.600171 111.411 0.0215454 112.137 0.0215454C113.026 0.0215454 113.549 0.794485 113.549 2.11582C113.549 3.46307 113.009 4.26192 112.102 4.26192C111.407 4.26192 110.954 3.76534 110.928 2.97944H111.433V2.98376ZM112.167 0.522445C111.731 0.522445 111.429 0.880847 111.429 1.38607C111.429 1.85242 111.701 2.15901 112.111 2.15901C112.413 2.15901 112.681 1.99492 112.983 1.62788C112.892 0.872211 112.629 0.522445 112.167 0.522445Z" fill="black"/>
<path d="M116.649 4.20148H114.024C114.024 3.64445 114.218 3.08309 114.702 2.59947C115.336 1.96471 116.045 1.77471 116.045 1.1529C116.045 0.759956 115.777 0.505188 115.38 0.505188C114.81 0.505188 114.671 0.837682 114.671 1.62358H114.127C114.037 0.509506 114.624 0.0258789 115.375 0.0258789C116.33 0.0258789 116.653 0.656322 116.653 1.13995C116.653 1.4379 116.558 1.71426 116.278 1.99493C115.725 2.54333 114.771 2.88878 114.62 3.67899H116.161L116.191 2.73333H116.688L116.649 4.20148Z" fill="black"/>
<path d="M118.579 0.0258789C119.473 0.0258789 120 0.811773 120 2.14607C120 3.48468 119.473 4.27057 118.579 4.27057C117.677 4.27057 117.15 3.48468 117.15 2.14607C117.15 0.811773 117.677 0.0258789 118.579 0.0258789ZM117.737 2.14175C117.737 3.20832 117.983 3.78694 118.571 3.78694C119.084 3.78694 119.413 3.35945 119.413 2.14175C119.413 0.941316 119.097 0.50087 118.571 0.50087C117.988 0.505188 117.737 1.10109 117.737 2.14175Z" fill="black"/>
<path d="M117.072 9.22351C117.284 9.22351 117.487 9.27533 117.681 9.38328C117.88 9.49123 118.035 9.64237 118.148 9.841C118.26 10.0396 118.32 10.2512 118.32 10.4714C118.32 10.8169 118.199 11.1105 117.958 11.3523C117.716 11.5985 117.418 11.7194 117.077 11.7194C116.731 11.7194 116.438 11.5985 116.191 11.3523C115.95 11.1062 115.824 10.8126 115.824 10.4714C115.824 10.2469 115.881 10.0396 115.993 9.841C116.105 9.64237 116.261 9.49123 116.455 9.38328C116.649 9.27533 116.856 9.22351 117.072 9.22351ZM117.072 9.43078C116.9 9.43078 116.727 9.47396 116.563 9.56464C116.399 9.65532 116.269 9.78055 116.174 9.94463C116.079 10.1087 116.032 10.2858 116.032 10.4714C116.032 10.7608 116.135 11.0026 116.338 11.2098C116.541 11.4128 116.787 11.5164 117.077 11.5164C117.366 11.5164 117.608 11.4128 117.815 11.2098C118.018 11.0069 118.122 10.7608 118.122 10.4714C118.122 10.1821 118.018 9.936 117.815 9.73305C117.612 9.5301 117.357 9.43078 117.072 9.43078ZM116.524 11.1623V9.81941H116.986C117.12 9.81941 117.224 9.82804 117.297 9.84532C117.37 9.86259 117.431 9.90145 117.483 9.96622C117.534 10.031 117.56 10.1001 117.56 10.1821C117.56 10.2771 117.526 10.3635 117.457 10.4369C117.388 10.5103 117.293 10.5535 117.176 10.5621C117.258 10.5837 117.362 10.696 117.487 10.8989L117.651 11.158H117.388L117.267 10.9464C117.176 10.7867 117.107 10.6873 117.059 10.6485C117.012 10.6096 116.947 10.588 116.865 10.588H116.74V11.158L116.524 11.1623ZM116.74 10.4067H117.003C117.219 10.4067 117.327 10.3376 117.327 10.2037C117.327 10.1303 117.301 10.0785 117.249 10.0483C117.198 10.018 117.111 10.0008 116.986 10.0008H116.74V10.4067Z" fill="black"/>
</svg>
