<svg width="120" height="18" viewBox="0 0 120 18" fill="none" xmlns="http://www.w3.org/2000/svg">
<path fill-rule="evenodd" clip-rule="evenodd" d="M114.177 4.02295L110.631 6.14029L105.814 10.7984V12.1747L109.678 14.6626H96.5505L100.415 12.1747V10.7984L95.386 5.98148L91.8394 4.02295H104.279L101.632 5.98148L104.438 8.57522L107.137 5.82268L104.491 4.07588H114.177V4.02295ZM79.9824 8.46935H83.476C84.5346 8.46935 85.1698 8.41642 85.4345 8.36349C85.6992 8.31055 85.9109 8.20469 86.0697 7.99295C86.2285 7.78122 86.2814 7.56949 86.2814 7.30482C86.2814 7.04015 86.2285 6.82842 86.0697 6.61669C85.9109 6.40495 85.7521 6.29908 85.4874 6.19322C85.1169 6.08735 84.4288 6.03442 83.423 6.03442H79.9294V8.46935H79.9824ZM70.6131 4.02295H83.476H85.4345C87.2342 4.02295 88.6634 4.23468 89.775 4.60522C90.3573 4.81695 90.8866 5.13455 91.363 5.55802C91.8394 6.03442 92.1041 6.51082 92.1041 7.04015C92.1041 7.72829 91.6806 8.31055 90.8337 8.73402C90.0926 9.10455 88.981 9.42215 87.4989 9.58096C88.1341 9.73976 88.6634 9.89856 88.981 10.1103C89.3516 10.2691 89.7221 10.5867 90.0397 10.9043C90.3044 11.169 90.569 11.4866 90.7808 11.7512C90.9925 12.0688 91.2042 12.4923 91.4689 13.0746L94.0626 14.6096H86.5461C86.2814 13.9744 85.9638 13.3392 85.6462 12.6511C85.2757 11.963 85.011 11.4866 84.7993 11.169C84.5876 10.9043 84.3758 10.6926 84.0582 10.6396C83.7936 10.5338 83.2642 10.4808 82.5761 10.4808H79.9824V12.0688L83.8465 14.5567H70.6131L74.4773 12.0688V6.51082L70.6131 4.02295ZM56.3211 8.46935H59.8147C60.8734 8.46935 61.5086 8.41642 61.7733 8.36349C62.0379 8.31055 62.2497 8.20469 62.4085 7.99295C62.5673 7.78122 62.6202 7.56949 62.6202 7.30482C62.6202 7.04015 62.5673 6.82842 62.4085 6.61669C62.2497 6.40495 62.0909 6.29908 61.8262 6.19322C61.4557 6.08735 60.7675 6.03442 59.7618 6.03442H56.2682V8.46935H56.3211ZM46.9519 4.02295H59.8147H61.7733C63.573 4.02295 65.0022 4.23468 66.1138 4.60522C66.6961 4.81695 67.2254 5.13455 67.7018 5.55802C68.1782 6.03442 68.4429 6.51082 68.4429 7.04015C68.4429 7.72829 68.0194 8.31055 67.1725 8.73402C66.4314 9.10455 65.3198 9.42215 63.8377 9.58096C64.4729 9.73976 65.0022 9.89856 65.3198 10.1103C65.6903 10.2691 66.0609 10.5867 66.3785 10.9043C66.6431 11.169 66.9078 11.4866 67.1195 11.7512C67.3313 12.0688 67.543 12.4923 67.8077 13.0746L70.4014 14.6096H62.8849C62.6202 13.9744 62.3026 13.3392 61.985 12.6511C61.6145 11.963 61.3498 11.4866 61.1381 11.169C60.9263 10.9043 60.7146 10.6926 60.397 10.6396C60.1323 10.5338 59.603 10.4808 58.9149 10.4808H56.3211V12.0688L60.1853 14.5567H46.9519L50.8161 12.0688V6.51082L46.9519 4.02295ZM45.258 4.02295V8.62815L41.288 5.82268H33.8244V8.09882H37.9532L40.8646 6.88135V11.6454L37.9532 10.2162H33.8244V12.4923H41.288L45.5756 9.47509V14.6096H24.4552L28.3194 12.1218V6.51082L24.4552 4.02295C24.4552 4.02295 45.258 4.02295 45.258 4.02295ZM24.3494 4.02295L17.2034 7.83415L20.9087 12.1218L24.5082 14.6096H12.4393L15.6153 12.3335L13.4451 9.84562L9.31628 11.7512V12.1747L12.2276 14.6626H0L3.86414 12.1747V6.51082L0 4.02295H12.1747L9.36921 6.29908V9.21042L15.4565 6.14029L12.7569 4.02295C12.7569 4.02295 24.3494 4.02295 24.3494 4.02295Z" fill="black"/>
<path fill-rule="evenodd" clip-rule="evenodd" d="M107.667 15.88V16.9916C107.667 17.0446 107.667 17.0446 107.667 17.0446C107.667 17.0446 107.667 17.0446 107.72 17.0446C107.72 17.0446 107.772 17.0446 107.825 17.0446C107.984 17.0446 108.09 17.0446 108.143 16.9916C108.196 16.9387 108.302 16.8858 108.355 16.7799C108.408 16.674 108.408 16.5682 108.408 16.4623C108.408 16.3564 108.408 16.1976 108.355 16.1447C108.302 16.0388 108.249 15.9859 108.196 15.933C108.143 15.88 108.037 15.88 107.931 15.88H107.667ZM107.031 15.6154H107.931C108.143 15.6154 108.302 15.6683 108.408 15.7212C108.514 15.7742 108.619 15.88 108.725 16.0388C108.778 16.1447 108.831 16.3035 108.831 16.5152C108.831 16.6211 108.831 16.7799 108.778 16.8328C108.725 16.9387 108.672 17.0446 108.619 17.0975C108.566 17.2034 108.461 17.2563 108.355 17.2563C108.302 17.3092 108.196 17.3092 108.09 17.3092C107.984 17.3092 107.878 17.3622 107.825 17.3622H107.031V17.0975H107.084C107.137 17.0975 107.19 17.0975 107.19 17.0975C107.19 17.0975 107.243 17.0975 107.243 17.0446C107.243 17.0446 107.243 16.9916 107.243 16.9387V15.9859C107.243 15.933 107.243 15.88 107.243 15.88C107.243 15.88 107.243 15.8271 107.19 15.8271C107.19 15.8271 107.137 15.8271 107.084 15.8271H107.031V15.6154ZM105.073 15.6154H105.814L106.343 16.6211V15.9859C106.343 15.933 106.343 15.88 106.343 15.88C106.343 15.88 106.343 15.8271 106.29 15.8271C106.29 15.8271 106.237 15.8271 106.184 15.8271H106.079V15.5624H106.82V15.8271H106.714C106.661 15.8271 106.661 15.8271 106.608 15.8271C106.608 15.8271 106.555 15.8271 106.555 15.88C106.555 15.88 106.555 15.933 106.555 15.9859V17.3622H106.184L105.549 16.0388V16.9387C105.549 16.9916 105.549 17.0446 105.549 17.0446C105.549 17.0446 105.549 17.0446 105.602 17.0975C105.602 17.0975 105.655 17.0975 105.708 17.0975H105.814V17.3622H105.073V17.0975H105.126C105.179 17.0975 105.179 17.0975 105.232 17.0975C105.232 17.0975 105.285 17.0975 105.285 17.0446C105.285 17.0446 105.285 16.9916 105.285 16.9387V15.9859C105.285 15.933 105.285 15.933 105.285 15.88C105.285 15.88 105.285 15.8271 105.232 15.8271H105.179H105.073V15.6154ZM103.802 16.5682H104.173L104.014 16.0918L103.802 16.5682ZM103.855 15.6154H104.226L104.755 16.9916C104.808 17.0446 104.808 17.0975 104.808 17.1504C104.808 17.1504 104.861 17.1504 104.914 17.1504V17.4151H104.067V17.1504H104.12C104.173 17.1504 104.173 17.1504 104.226 17.1504L104.279 17.0975C104.279 17.0975 104.279 17.0446 104.279 16.9916L104.226 16.8328H103.697L103.644 16.9916C103.644 17.0446 103.644 17.0446 103.644 17.0446C103.644 17.0446 103.644 17.0446 103.644 17.0975C103.644 17.0975 103.644 17.0975 103.697 17.0975C103.697 17.0975 103.75 17.0975 103.802 17.0975V17.3622H103.114V17.0975C103.167 17.0975 103.167 17.0975 103.22 17.0975C103.22 17.0975 103.273 17.0975 103.273 17.0446C103.273 17.0446 103.326 16.9916 103.326 16.9387L103.855 15.6154ZM101.579 15.6154H102.426V15.88H102.373C102.32 15.88 102.32 15.88 102.267 15.88C102.267 15.88 102.214 15.88 102.214 15.933C102.214 15.933 102.214 15.9859 102.214 16.0388V17.0446C102.214 17.0975 102.214 17.0975 102.214 17.0975H102.267C102.373 17.0975 102.479 17.0975 102.532 17.0446C102.585 16.9916 102.638 16.9916 102.744 16.8858C102.797 16.8328 102.85 16.727 102.903 16.6211L103.114 16.674L102.903 17.3092H101.579V17.0446H101.685C101.738 17.0446 101.738 17.0446 101.738 17.0446C101.738 17.0446 101.791 17.0446 101.791 16.9916C101.791 16.9916 101.791 16.9387 101.791 16.8858V15.9859C101.791 15.933 101.791 15.933 101.791 15.88C101.791 15.88 101.791 15.8271 101.738 15.8271H101.685H101.579V15.6154ZM99.6736 15.6154H100.415L100.944 16.6211V15.9859C100.944 15.933 100.944 15.88 100.944 15.88C100.944 15.88 100.944 15.8271 100.891 15.8271C100.891 15.8271 100.838 15.8271 100.785 15.8271H100.679V15.5624H101.42V15.8271H101.315C101.262 15.8271 101.262 15.8271 101.209 15.8271C101.209 15.8271 101.156 15.8271 101.156 15.88C101.156 15.88 101.156 15.933 101.156 15.9859V17.3622H100.785L100.15 16.0388V16.9387C100.15 16.9916 100.15 17.0446 100.15 17.0446C100.15 17.0446 100.15 17.0446 100.203 17.0975C100.203 17.0975 100.256 17.0975 100.309 17.0975H100.415V17.3622H99.6736V17.0975H99.7266C99.7795 17.0975 99.7795 17.0975 99.8324 17.0975C99.8324 17.0975 99.8854 17.0975 99.8854 17.0446C99.8854 17.0446 99.8854 16.9916 99.8854 16.9387V15.9859C99.8854 15.933 99.8854 15.933 99.8854 15.88C99.8854 15.88 99.8854 15.8271 99.8324 15.8271H99.7795H99.6736V15.6154ZM98.615 15.6154H99.4619V15.88H99.409C99.356 15.88 99.356 15.88 99.3031 15.88C99.3031 15.88 99.3031 15.88 99.2502 15.933C99.2502 15.933 99.2502 15.9859 99.2502 16.0388V16.9916C99.2502 17.0446 99.2502 17.0975 99.2502 17.0975C99.2502 17.0975 99.2502 17.0975 99.3031 17.1504H99.356H99.4619V17.4151H98.615V17.1504H98.6679C98.7208 17.1504 98.7738 17.1504 98.7738 17.1504C98.7738 17.1504 98.8267 17.1504 98.8267 17.0975C98.8267 17.0975 98.8267 17.0446 98.8267 16.9916V16.0388C98.8267 15.9859 98.8267 15.933 98.8267 15.933C98.8267 15.933 98.8267 15.88 98.7738 15.88C98.7738 15.88 98.7208 15.88 98.6679 15.88H98.615V15.6154ZM96.8682 15.6154H98.3503L98.562 16.1976L98.3503 16.3035C98.2974 16.1976 98.2974 16.1447 98.2444 16.1447C98.1915 16.0918 98.1915 16.0918 98.1386 16.0388C98.0856 15.9859 98.0327 15.9859 97.9798 15.9859C97.9268 15.9859 97.8739 15.9859 97.768 15.9859H97.5563V16.4623H97.6622C97.7151 16.4623 97.7151 16.4623 97.768 16.4623L97.821 16.4094C97.821 16.4094 97.821 16.3564 97.821 16.3035V16.1976H98.0327V16.9916H97.821V16.8858C97.821 16.8328 97.821 16.8328 97.821 16.8328C97.821 16.8328 97.821 16.7799 97.768 16.7799C97.768 16.7799 97.7151 16.7799 97.7151 16.727C97.7151 16.727 97.6622 16.727 97.6092 16.727H97.5034V17.0975C97.5034 17.1504 97.5034 17.1504 97.5034 17.2034C97.5034 17.2034 97.5034 17.2563 97.5563 17.2563C97.5563 17.2563 97.6092 17.2563 97.6622 17.2563H97.7151V17.521H96.8682V17.2563H96.9211C96.974 17.2563 97.027 17.2563 97.027 17.2563C97.027 17.2563 97.0799 17.2034 97.0799 17.1504V15.9859C97.0799 15.933 97.0799 15.933 97.0799 15.88C97.0799 15.88 97.0799 15.8271 97.027 15.8271C97.027 15.8271 96.974 15.8271 96.9211 15.8271H96.8682V15.6154Z" fill="black"/>
<path fill-rule="evenodd" clip-rule="evenodd" d="M116.983 2.27614H117.459C117.724 2.27614 117.883 2.2232 117.936 2.17027C118.042 2.11734 118.042 2.01147 118.042 1.9056C118.042 1.85267 118.042 1.7468 117.989 1.69387C117.936 1.64094 117.883 1.588 117.83 1.53507C117.777 1.48214 117.618 1.48214 117.406 1.48214H116.983V2.27614ZM116.559 3.70534V1.16453H117.459C117.777 1.16453 117.989 1.16453 118.094 1.21747C118.253 1.2704 118.359 1.32333 118.412 1.48214C118.518 1.588 118.518 1.7468 118.518 1.85267C118.518 2.0644 118.465 2.2232 118.306 2.32907C118.147 2.48787 117.989 2.5408 117.777 2.5408C117.883 2.59374 117.936 2.64667 117.989 2.6996C118.094 2.80547 118.2 2.96427 118.359 3.22894L118.677 3.70534H118.2L117.989 3.28187C117.83 2.96427 117.671 2.75254 117.565 2.6996C117.512 2.64667 117.353 2.59374 117.248 2.59374H116.983V3.70534H116.559ZM117.618 0.423467C117.3 0.423467 116.93 0.529334 116.612 0.688134C116.295 0.846934 116.03 1.1116 115.871 1.4292C115.712 1.7468 115.607 2.0644 115.607 2.43494C115.607 2.80547 115.712 3.12307 115.871 3.44067C116.03 3.75827 116.295 4.02294 116.612 4.18174C116.93 4.34054 117.248 4.4464 117.618 4.4464C117.936 4.4464 118.306 4.34054 118.624 4.18174C118.941 4.02294 119.206 3.75827 119.365 3.44067C119.524 3.12307 119.63 2.80547 119.63 2.43494C119.63 2.0644 119.524 1.7468 119.365 1.4292C119.206 1.1116 118.941 0.846934 118.624 0.688134C118.306 0.476401 117.989 0.423467 117.618 0.423467ZM117.618 0C118.042 0 118.412 0.105867 118.783 0.3176C119.153 0.529334 119.471 0.794001 119.682 1.21747C119.894 1.588 120 2.01147 120 2.43494C120 2.8584 119.894 3.22894 119.682 3.59947C119.471 3.97 119.153 4.2876 118.783 4.49934C118.412 4.71107 117.989 4.81694 117.618 4.81694C117.195 4.81694 116.824 4.71107 116.454 4.49934C116.083 4.2876 115.765 3.97 115.554 3.59947C115.342 3.22894 115.236 2.80547 115.236 2.43494C115.236 2.01147 115.342 1.64094 115.554 1.21747C115.765 0.846934 116.083 0.529334 116.454 0.3176C116.824 0.105867 117.248 0 117.618 0Z" fill="black"/>
</svg>
