<svg width="102" height="27" viewBox="0 0 102 27" fill="none" xmlns="http://www.w3.org/2000/svg">
<path fill-rule="evenodd" clip-rule="evenodd" d="M100.607 16.2986H93.2718C93.1572 16.2986 93.0604 16.2552 92.9834 16.1722L88.1967 10.9568C88.086 10.8362 87.9477 10.775 87.7838 10.775C87.6218 10.775 87.4815 10.8362 87.3709 10.9568L82.5841 16.1722C82.5071 16.2552 82.4083 16.2986 82.2957 16.2986H74.9605C74.7847 16.2986 74.6365 16.188 74.5851 16.0201C74.5338 15.8522 74.597 15.6763 74.7452 15.5795L84.1527 9.36051C84.3147 9.25383 84.4036 9.08788 84.4036 8.89428C84.4036 8.70068 84.3147 8.53473 84.1527 8.42805L74.7452 2.20903C74.599 2.11223 74.5358 1.93838 74.5851 1.76849C74.6365 1.60057 74.7847 1.48994 74.9605 1.48994H82.2957C82.4103 1.48994 82.5071 1.5334 82.5841 1.61637L87.3709 6.83181C87.4815 6.95232 87.6218 7.01356 87.7838 7.01356C87.9458 7.01356 88.086 6.95232 88.1967 6.83181L92.9834 1.61637C93.0604 1.5334 93.1592 1.48994 93.2718 1.48994H100.607C100.783 1.48994 100.931 1.60057 100.982 1.76849C101.034 1.93641 100.971 2.11223 100.822 2.20903L91.4148 8.42805C91.2528 8.53473 91.1639 8.70068 91.1639 8.89428C91.1639 9.08788 91.2528 9.25383 91.4148 9.36051L100.822 15.5795C100.969 15.6763 101.032 15.8502 100.982 16.0201C100.933 16.188 100.783 16.2986 100.607 16.2986ZM13.7008 1C19.2619 1 23.3454 2.58241 25.5363 4.93529C25.6449 5.05184 25.6726 5.21186 25.6094 5.35805C25.5462 5.50424 25.4098 5.59314 25.2498 5.59314H19.6768C19.5662 5.59314 19.4714 5.55166 19.3943 5.47264C18.0865 4.11544 16.024 3.23829 13.7008 3.23829C9.75364 3.23829 6.55128 5.77094 6.55128 8.89428C6.55128 12.0176 9.75364 14.5503 13.7008 14.5503C16.8301 14.5503 19.4891 12.96 20.4591 10.7454C20.5144 10.6209 20.5026 10.4885 20.4275 10.374C20.3524 10.2594 20.2359 10.1962 20.0996 10.1962H12.8217C12.6063 10.1962 12.4305 10.0203 12.4305 9.80501V8.36681C12.4305 8.15148 12.6063 7.97565 12.8217 7.97565H20.7555H25.8267C26.1191 7.97565 26.3601 8.19889 26.3838 8.48929C26.3956 8.62363 26.4016 8.75994 26.4016 8.89823C26.4016 13.2583 20.714 16.7925 13.7008 16.7925C6.6876 16.7925 1 13.2563 1 8.89823C1 4.53425 7.63586 1 13.7008 1ZM62.9689 1C69.9821 1 75.6697 4.53623 75.6697 8.89428C75.6697 13.2543 69.9821 16.7886 62.9689 16.7886C55.9557 16.7886 50.2681 13.2523 50.2681 8.89428C50.2681 4.53425 55.9557 1 62.9689 1ZM62.9689 3.23829C66.9161 3.23829 70.1184 5.77094 70.1184 8.89428C70.1184 12.0176 66.9161 14.5503 62.9689 14.5503C59.0218 14.5503 55.8194 12.0176 55.8194 8.89428C55.8194 5.77094 59.0198 3.23829 62.9689 3.23829ZM29.8706 1.48994H34.9735H48.9228C49.1381 1.48994 49.314 1.66576 49.314 1.88109V3.31929C49.314 3.53463 49.1381 3.71045 48.9228 3.71045H35.3646C35.1493 3.71045 34.9735 3.88627 34.9735 4.10161V7.39287C34.9735 7.6082 35.1493 7.78402 35.3646 7.78402H46.647C46.8623 7.78402 47.0381 7.95985 47.0381 8.17518V9.61338C47.0381 9.82871 46.8623 10.0045 46.647 10.0045H35.3646C35.1493 10.0045 34.9735 10.1804 34.9735 10.3957V13.6791C34.9735 13.8944 35.1493 14.0702 35.3646 14.0702H48.9228C49.1381 14.0702 49.314 14.246 49.314 14.4614V15.8996C49.314 16.1149 49.1381 16.2907 48.9228 16.2907H34.9735H29.8706C29.5624 16.2907 29.3116 16.0398 29.3116 15.7316C29.3116 11.1681 29.3116 6.60462 29.3116 2.04309C29.3116 1.74083 29.5624 1.48994 29.8706 1.48994Z" fill="black" stroke="black" stroke-width="0.216" stroke-miterlimit="22.9256"/>
<path d="M3.13551 23.6259H3.39233C4.14303 23.6259 4.64285 23.5745 4.88979 23.4698C5.13673 23.3651 5.26119 23.1814 5.26119 22.9147C5.26119 22.6282 5.12883 22.4267 4.86411 22.3082C4.59939 22.1897 4.10945 22.1324 3.3943 22.1324H3.13748V23.6259H3.13551ZM3.04463 24.2837V26.6149H1.71509V21.4054H3.69459C4.2754 21.4054 4.7278 21.4291 5.04783 21.4725C5.36787 21.518 5.6405 21.5911 5.86966 21.6958C6.14031 21.8222 6.34774 21.9842 6.49789 22.1837C6.64408 22.3833 6.71717 22.6006 6.71717 22.8376C6.71717 23.2545 6.54727 23.5804 6.20946 23.8175C5.87164 24.0526 5.36985 24.1948 4.71002 24.2423L7.71877 26.6129H6.11463L3.2086 24.2818H3.04463V24.2837ZM17.6281 26.6149V21.4054H22.5038V22.1245H19.0466V23.4303H22.5038V24.1731H19.0466V25.8563H22.5038V26.6149H17.6281ZM32.6996 25.5718L33.8315 25.2597C33.9402 25.4908 34.1377 25.6686 34.4222 25.7911C34.7087 25.9136 35.0761 25.9748 35.5206 25.9748C35.9414 25.9748 36.2792 25.9037 36.5262 25.7654C36.7751 25.6251 36.8996 25.4394 36.8996 25.2043C36.8996 24.8981 36.4748 24.6255 35.6234 24.3865C35.5029 24.3509 35.414 24.3252 35.3488 24.3094C34.3867 24.0289 33.7466 23.776 33.4266 23.5488C33.1065 23.3236 32.9465 23.0451 32.9465 22.7171C32.9465 22.2924 33.1895 21.9486 33.6715 21.6839C34.1536 21.4212 34.7877 21.2888 35.572 21.2888C36.216 21.2888 36.7553 21.3639 37.19 21.512C37.6246 21.6602 37.9229 21.8736 38.0908 22.1501L36.9806 22.4919C36.8047 22.3279 36.6131 22.2094 36.4037 22.1343C36.1963 22.0573 35.9552 22.0198 35.6846 22.0198C35.3033 22.0198 35.0011 22.079 34.7759 22.1976C34.5506 22.3161 34.438 22.4761 34.438 22.6756C34.438 22.9898 34.9299 23.2802 35.9197 23.5508C35.9948 23.5725 36.054 23.5903 36.0975 23.6002C36.9608 23.8392 37.5535 24.0704 37.8775 24.2956C38.1995 24.5228 38.3595 24.8053 38.3595 25.1451C38.3595 25.639 38.0987 26.0301 37.5772 26.3205C37.0556 26.6109 36.3523 26.7571 35.4653 26.7571C34.7225 26.7571 34.1121 26.6544 33.636 26.4509C33.1579 26.2435 32.8457 25.9511 32.6996 25.5718ZM50.3965 23.5824H50.762C51.5502 23.5824 52.0757 23.5311 52.3385 23.4303C52.6012 23.3276 52.7316 23.1478 52.7316 22.889C52.7316 22.6105 52.5913 22.4149 52.3108 22.3023C52.0322 22.1877 51.5147 22.1304 50.762 22.1304H50.3965V23.5824ZM50.3076 24.2758V26.6149H48.9781V21.4054H51.1274C51.7636 21.4054 52.2318 21.4251 52.5321 21.4666C52.8323 21.5081 53.0951 21.5772 53.3163 21.6721C53.5909 21.7926 53.8063 21.9565 53.9624 22.16C54.1164 22.3655 54.1955 22.5907 54.1955 22.8396C54.1955 23.0866 54.1184 23.3137 53.9624 23.5232C53.8083 23.7326 53.5909 23.8965 53.3163 24.0131C53.0951 24.1079 52.8323 24.1751 52.5321 24.2166C52.2298 24.2561 51.7616 24.2778 51.1274 24.2778H50.8469H50.3076V24.2758ZM64.575 26.6149V21.4054H65.9954V26.6169H64.575V26.6149ZM78.5243 23.6259H78.7811C79.5318 23.6259 80.0317 23.5745 80.2786 23.4698C80.5255 23.3651 80.65 23.1814 80.65 22.9147C80.65 22.6282 80.5176 22.4267 80.2529 22.3082C79.9882 22.1897 79.4983 22.1324 78.7831 22.1324H78.5263V23.6259H78.5243ZM78.4334 24.2837V26.6149H77.1039V21.4054H79.0834C79.6642 21.4054 80.1166 21.4291 80.4366 21.4725C80.7567 21.518 81.0293 21.5911 81.2585 21.6958C81.5291 21.8222 81.7365 21.9842 81.8867 22.1837C82.0329 22.3833 82.106 22.6006 82.106 22.8376C82.106 23.2545 81.9361 23.5804 81.5983 23.8175C81.2604 24.0526 80.7587 24.1948 80.0988 24.2423L83.1076 26.6129H81.5034L78.5974 24.2818H78.4334V24.2837ZM94.8601 24.5682H97.294L96.3991 23.3809C96.3477 23.3039 96.2924 23.2169 96.239 23.1182C96.1837 23.0194 96.1264 22.9107 96.0711 22.7883C96.0217 22.9028 95.9743 23.0095 95.919 23.1083C95.8657 23.2071 95.8103 23.296 95.757 23.3809L94.8601 24.5682ZM98.7875 26.6149L97.7958 25.2715H94.3366L93.3231 26.6149H91.8296L96.0593 21.1979L100.283 26.6149H98.7875Z" fill="black"/>
</svg>
