<svg width="120" height="60" viewBox="0 0 120 60" fill="none" xmlns="http://www.w3.org/2000/svg">
<path d="M22.7394 26.5606C22.0424 26.3409 21.3182 26.2288 20.5879 26.2242C16.6485 26.2242 16.1242 30.0636 16.1242 33.3591V41.0318H10V19.7409H16.1258V22.7561H16.2121C17.2727 21.4697 19.2424 19.7258 21.2939 19.6742C22.2606 19.6591 23.2242 19.8121 24.1379 20.1288L22.7394 26.5606Z" fill="#D2092D"/>
<path d="M30.75 31.3622C30.75 34.0515 31.8 37.0864 34.9924 37.0864C37.0045 37.0864 38.2742 35.8743 39.106 34.1803L44.75 35.0894C43.2636 39.3425 39.5 41.7273 35 41.7273C28.35 41.7273 24.2803 37.044 24.2803 30.5818C24.2803 24.1197 27.7272 19.047 34.6878 19.047C41.7318 19.047 44.8818 24.2076 44.8818 30.6258V31.3622H30.75ZM39.1075 27.5894C38.8045 25.4212 37.4015 23.297 35.0378 23.297C32.5878 23.297 31.2318 25.3788 30.9242 27.5894H39.1075Z" fill="#D2092D"/>
<path d="M53.1971 19.6015H47.0713V40.8939H53.1971V19.6015Z" fill="#D2092D"/>
<path d="M62.2727 21.6485H62.3606C63.5348 19.9576 65.6363 19.047 67.6045 19.047C70.2742 19.047 72.1333 19.997 73.6818 22.2409C75.0681 20.3046 77.5363 19.047 80.0303 19.047C85.5 19.047 86.8484 23.1228 86.8484 27.7637V41.0334H80.7303V29.8455C80.7303 27.7637 80.8606 23.9046 77.8424 23.9046C74.5166 23.9046 74.5606 28.3712 74.5606 30.5834V41.0379H68.4363V30.2349C68.4363 28.1531 68.6984 23.9031 65.5045 23.9031C62.0924 23.9046 62.2727 28.3273 62.2727 30.5818V41.0364H56.1409V19.7409H62.2727V21.6485Z" fill="#D2092D"/>
<path d="M110 40.9864H103.962V39.0349H103.874C102.583 40.7318 100.562 41.7136 98.4304 41.6803C92.1289 41.6803 88.541 35.9985 88.541 30.2318C88.541 24.5939 92.1774 19 98.341 19C100.573 19 102.473 19.9545 103.961 21.6894V19.6939H110V40.9864ZM104.394 30.3182C104.394 27.4561 102.614 24.3773 99.4622 24.3773C96.3107 24.3773 94.5668 27.4561 94.5668 30.3182C94.5668 33.1803 96.3047 36.303 99.4547 36.303C102.605 36.303 104.386 33.1803 104.386 30.3182" fill="#D2092D"/>
</svg>
