<svg width="100" height="40" viewBox="0 0 100 40" fill="none" xmlns="http://www.w3.org/2000/svg">
<path d="M7.22964 18.9175C9.36385 20.0876 10.0878 21.5703 9.60338 23.744C9.19797 25.5632 7.5051 26.8788 5.39005 27.0369C3.69717 27.1627 2.03064 26.9315 0.434774 26.4052C0.051526 26.2788 -0.0592566 25.974 0.0281718 25.6686C0.228778 24.968 0.40603 24.3901 0.617415 23.7314C0.799458 23.1679 1.01444 23.0236 1.60667 23.1883C2.50072 23.4368 3.90736 23.656 4.55229 23.6027C5.19723 23.5494 5.61221 23.32 5.73617 22.82C5.87749 22.2583 5.45891 21.8284 5.10501 21.5595C4.49959 21.099 3.74627 20.8349 3.05882 20.4822C0.838381 19.342 -0.0927907 17.7168 0.338363 15.7407C0.784487 13.6963 2.5606 12.2903 4.9032 12.2334C6.02779 12.2058 7.46378 12.3621 8.59017 12.4885C9.0327 12.5382 9.24708 12.7795 9.19198 13.2777C9.11593 13.9568 9.02851 14.5969 8.91173 15.2856C8.8291 15.7748 8.55004 15.9186 8.15422 15.8527C7.48833 15.7431 6.51703 15.6126 5.84515 15.5814C5.1613 15.5497 4.38642 15.5928 4.18162 16.412C3.99598 17.1551 4.62175 17.5318 5.17327 17.8444C5.84515 18.2252 6.55117 18.5462 7.22964 18.9175ZM38.0691 20.3469C38.1835 19.5744 38.1661 18.8097 38.0188 17.9402C37.8469 16.9264 37.4379 16.0072 36.3187 15.7132C35.066 15.3838 33.9324 15.9347 32.9 16.509L32.8102 16.6581V23.5104L32.8988 23.6614C32.8988 23.6614 33.3288 23.7871 33.7228 23.8446C35.9361 24.1692 37.6481 23.1967 38.0691 20.3469ZM34.2821 12.8873C36.4169 11.6777 38.9512 12.1735 40.4895 14.0957C43.5118 17.8689 42.1327 24.374 37.89 26.4285C36.5008 27.1004 35.3319 27.1896 34.1821 26.9555C33.5623 26.8291 32.9342 26.571 32.9342 26.571L32.8102 26.6944V32.4413C32.8102 33.0701 32.5515 33.2509 31.988 33.2617C31.2383 33.2755 30.4497 33.2767 29.6718 33.2623C29.0688 33.2509 28.8149 33.091 28.8149 32.4377C28.8149 29.3167 28.8256 26.1513 28.8256 23.0296C28.8256 19.9073 28.8143 16.5605 28.8143 13.4382C28.8143 12.8963 29.1334 12.737 29.558 12.7316C30.2862 12.7226 31.4701 12.725 32.1551 12.7316C32.5479 12.7352 32.7677 12.9562 32.7917 13.2532C32.8126 13.5131 32.8108 13.7945 32.8108 13.7945L32.9551 13.8933C32.9545 13.8927 33.5683 13.2921 34.2821 12.8873ZM24.5884 12.731C25.1297 12.7394 25.2938 13.0951 25.2938 13.5903C25.2938 15.6419 25.283 17.636 25.283 19.6426C25.283 21.6745 25.2914 23.7075 25.2914 25.7399C25.2914 26.3225 25.1399 26.5597 24.4476 26.6004C23.6811 26.6447 22.9398 26.6297 22.1841 26.6004C21.5487 26.5752 21.2966 26.4118 21.2966 25.7177C21.2966 25.5423 21.293 25.1015 21.3044 24.9758L21.1787 24.9159C21.1787 24.9159 20.8242 25.2387 20.4517 25.5339C19.4319 26.3411 18.5366 27.0064 17.1983 27.0657C14.4772 27.1866 12.358 25.2237 12.3071 22.5002C12.2514 19.5013 12.3436 16.5 12.2861 13.4999C12.2753 12.9328 12.5244 12.7394 13.0813 12.731C13.9898 12.7178 14.591 12.7238 15.4096 12.731C16.0922 12.7364 16.2827 12.8951 16.2827 13.64C16.2827 16.3569 16.2767 18.8013 16.2767 21.6248C16.2767 23.2374 16.8893 23.7398 18.454 23.3865C19.7786 23.0865 20.5259 22.6362 21.1996 22.2715L21.299 22.1284C21.299 22.1284 21.302 20.7385 21.302 19.9127C21.302 17.8078 21.2936 15.7024 21.2936 13.5981C21.2936 13.0178 21.4218 12.7388 22.135 12.7322C22.9817 12.7238 23.8135 12.719 24.5884 12.731ZM47.3922 18.7492L47.5156 18.8732C47.5156 18.8732 50.8462 18.3749 52.4678 18.0558C52.9367 17.9635 53.1074 17.8569 53.1074 17.5054C53.1074 16.1784 52.0241 15.1401 50.6827 15.1293C48.921 15.1149 47.3144 16.7383 47.3796 18.4977C47.3808 18.5252 47.3922 18.7492 47.3922 18.7492ZM55.8662 25.2746C56.0069 26.0752 55.8925 26.2088 54.7284 26.5058C53.629 26.786 52.5714 27.0711 50.9887 27.0711C47.0149 26.8992 44.755 25.2159 43.9897 21.823C43.1705 18.1977 44.9125 14.3389 47.9449 12.9065C51.5989 11.1807 55.5206 12.8777 56.2051 16.6868C56.3722 17.6156 56.338 18.5336 56.1578 19.4732C56.05 20.0331 55.8344 20.2475 55.3158 20.3175C53.0403 20.6247 50.7774 20.893 48.4731 21.1104C48.3 21.1265 47.6467 21.1852 47.6467 21.1852L47.5233 21.3092C47.5683 21.59 47.6802 22.0876 48.0317 22.5308C49.2306 24.0428 50.8289 23.9656 52.5636 23.8147C53.3074 23.7506 54.0433 23.5913 54.7775 23.447C55.2332 23.3571 55.4434 23.547 55.5715 23.9751C55.6464 24.2272 55.7841 24.8081 55.8662 25.2746ZM88.9536 10.2315C88.565 10.2315 88.368 10.0303 88.3458 9.66084C88.3242 9.29615 88.3195 8.32606 88.3458 7.60866C88.3584 7.26434 88.5722 7.01343 88.9105 7.01343H90.2117C90.6166 7.01343 90.774 6.66372 90.774 6.45772V3.62648C90.774 3.32946 91.0244 3.08993 91.3064 3.08155C91.895 3.06418 93.6239 3.06239 94.2269 3.08155C94.6838 3.09592 94.7868 3.50372 94.7868 3.69535V6.44694C94.7868 6.78528 95.0562 7.01343 95.3251 7.01343C96.5287 7.01343 98.2857 7.00685 99.3624 7.01343C99.7606 7.01583 99.9804 7.25236 99.9888 7.64519C100.003 8.29731 100.005 9.20753 99.9888 9.65664C99.9768 10.0046 99.7253 10.2315 99.4085 10.2315H95.3664C95.0275 10.2315 94.7946 10.4609 94.7868 10.7651C94.7341 12.734 94.7119 14.1604 94.7868 16.1569C94.8263 17.206 95.1604 17.5156 96.2144 17.4144C97.2431 17.3156 98.1905 17.0964 99.2061 16.8869C99.7373 16.7779 99.942 16.8833 99.9576 17.4731C99.9792 18.2863 99.9696 19.1708 99.9576 19.3798C99.9462 19.5588 99.8139 19.778 99.6145 19.8612C99.3211 19.9852 98.4869 20.2522 97.6605 20.4259C96.4353 20.681 95.185 20.8181 93.9065 20.8169C92.3801 20.8163 91.3771 20.1043 91.1046 18.5995C90.8178 17.0174 90.8447 16.5785 90.7734 13.6011C90.7675 13.3712 90.7734 11.8927 90.7734 10.804C90.7734 10.477 90.5267 10.2315 90.2435 10.2315H88.9536ZM70.2901 10.2321C69.7637 10.2321 69.5511 9.95486 69.5313 9.36801C69.5128 8.83146 69.5062 8.17635 69.5313 7.8458C69.5655 7.39189 69.6769 7.01403 70.223 7.01403H71.0997C71.4835 7.01403 71.6793 6.73079 71.6793 6.32898C71.6793 5.10977 71.7021 4.17381 71.8416 3.19952C72.0153 1.98211 72.8021 1.09944 74.183 0.606609C75.5735 0.109585 76.5705 0 77.9646 0C78.3341 0 78.5472 0.253303 78.5568 0.521576C78.5898 1.40784 78.5975 2.64022 78.5604 3.06059C78.5335 3.37617 78.2688 3.52348 78.0574 3.55582C77.8616 3.58516 77.334 3.63546 77.0568 3.7187C75.3681 4.2289 75.4537 4.81036 75.4256 6.34335C75.4184 6.76492 75.628 7.01403 76.0316 7.01403H77.958C78.2221 7.01403 78.5478 7.17452 78.5742 7.58232C78.6071 8.09132 78.6107 9.02129 78.5742 9.56981C78.5538 9.88001 78.3987 10.2321 77.9538 10.2321H76.2154C75.8962 10.2321 75.6555 10.48 75.6555 10.792C75.6555 13.7634 75.6735 18.3719 75.6735 21.4098C75.6735 22.1481 75.492 22.3835 74.8705 22.3835C74.1034 22.3835 73.1477 22.3787 72.4159 22.3787C71.9284 22.3787 71.6781 22.1811 71.6781 21.5912V10.81C71.6781 10.4339 71.4105 10.2321 71.126 10.2321H70.2901ZM84.9379 7.01283C85.4762 7.02481 85.6044 7.34458 85.6044 7.60447C85.6044 9.61353 85.5924 11.937 85.5924 13.946C85.5924 15.979 85.5996 17.6785 85.5996 19.7115C85.5996 20.3025 85.3906 20.5067 84.8648 20.5271C84.0433 20.5576 83.0732 20.5523 82.2582 20.5205C81.8558 20.5043 81.6054 20.2996 81.6054 19.8702C81.6054 15.7072 81.6066 11.8166 81.6066 7.65358C81.6066 7.24817 81.8132 7.02182 82.2228 7.01044C83.0043 6.98888 84.2193 6.99667 84.9379 7.01283ZM83.545 4.24028C82.263 4.23848 81.33 3.39893 81.3306 2.24918C81.3318 1.04076 82.3091 0.11737 83.5959 0.109585C84.893 0.100603 85.8397 1.04195 85.8266 2.17493C85.8128 3.33785 84.7487 4.24207 83.545 4.24028ZM59.6962 19.8007C59.6962 17.2509 59.7849 16.7294 58.4926 14.8119C58.1872 14.3592 58.2776 14.0622 58.7399 13.7328C59.3082 13.3262 59.8974 12.9454 60.5005 12.5765C60.9945 12.2741 61.2502 12.349 61.6065 12.8232C62.046 13.4095 62.5389 14.2233 62.5389 14.2233L62.7107 14.2568C62.7107 14.2568 63.5874 13.5879 64.73 12.9208C65.8737 12.2531 66.6761 11.9681 67.5804 11.7298C68.3091 11.5376 68.2924 12.3136 68.3139 12.8178C68.3451 13.5706 68.3277 14.3245 68.2816 15.1185C68.2582 15.5096 68.0936 15.7108 67.4696 15.7898C66.8576 15.8677 66.3079 15.9641 65.4414 16.2204C64.7964 16.412 64.1216 16.6946 63.7599 16.9084L63.6874 17.0366V25.6285C63.6874 26.3094 63.5425 26.6004 62.9311 26.6004C62.1951 26.6004 61.2975 26.6285 60.5568 26.6004C59.9879 26.5788 59.6843 26.4519 59.6968 25.8189C59.7244 24.4392 59.6962 22.3505 59.6962 19.8007ZM95.3215 26.907C95.7341 26.9711 95.9341 27.2262 95.7874 27.6292C95.6299 28.0645 95.1652 29.14 95.0089 29.3879C94.8227 29.6873 94.6999 29.7999 94.1173 29.7664C92.6382 29.6807 90.8824 29.5562 89.2141 29.5484C68.4397 29.4532 60.8879 35.972 59.4549 36.8942C58.3369 37.6146 57.4465 38.4451 56.8129 38.9008C56.365 39.223 56.2584 39.2709 56.0296 39.1865C55.9332 39.1517 55.6853 38.9841 55.5841 38.8984C55.441 38.7769 55.362 38.614 55.5889 38.3463C56.0853 37.7607 56.9488 36.8355 58.0076 35.9307C60.9897 33.3809 70.0978 26.077 91.2268 26.5435C91.8154 26.5531 94.2394 26.7405 95.3215 26.907Z" fill="#FF211C"/>
</svg>
